<?xml version="1.0" encoding="UTF-8"?>
<svg id="Camada_2" data-name="Camada 2" xmlns="http://www.w3.org/2000/svg" viewBox="0 0 80 80.05">
  <defs>
    <style>
      .cls-1 {
        fill: #000;
        stroke-width: 0px;
      }
    </style>
  </defs>
  <g id="Camada_1-2" data-name="Camada 1">
    <g>
      <path class="cls-1" d="M77.8.42c-.5-.3-1.1-.4-1.7-.4-.8,0-1.7.3-2.4.8l-33.7,26.3L6.3.82C5.1-.08,3.6-.28,2.2.42.9,1.12,0,2.42,0,3.92v9.8c0,1.2.5,2.3,1.5,3.1l36.1,28.1c1.4,1.1,3.4,1.1,4.8,0l36.1-28.2c1-.7,1.5-1.8,1.5-3V3.92c0-1.5-.8-2.8-2.2-3.5ZM77.4,13.72c0,.4-.2.8-.5,1l-36.1,28.1c-.2.2-.5.3-.8.3s-.6-.1-.8-.3L3.1,14.72c-.3-.2-.5-.6-.5-1V3.92c0-.5.3-.9.7-1.2.5-.2,1-.2,1.4.1l34.5,26.9c.5.4,1.1.4,1.6,0L75.3,2.92c.4-.3.9-.4,1.4-.1.5.2.7.7.7,1.2v9.7Z"/>
      <path class="cls-1" d="M77.8,34.72c-.5-.3-1.1-.4-1.7-.4-.8,0-1.7.3-2.4.8l-33.7,26.3L6.3,35.12c-1.2-.9-2.7-1.1-4.1-.4-1.3.7-2.2,2-2.2,3.5v9.8c0,1.2.5,2.3,1.5,3.1l36.1,28.1c1.4,1.1,3.4,1.1,4.8,0l36.1-28.1c1-.8,1.5-1.9,1.5-3.1v-9.8c0-1.5-.8-2.8-2.2-3.5ZM77.4,48.02c0,.4-.2.8-.5,1l-36.1,28.1c-.2.2-.5.3-.8.3s-.6-.1-.8-.3L3.1,49.02c-.3-.2-.5-.6-.5-1v-9.8c0-.5.3-.9.7-1.2.5-.2,1-.2,1.4.1l34.5,27c.5.4,1.1.4,1.6,0l34.5-26.9c.4-.3.9-.4,1.4-.1.5.2.7.7.7,1.2v9.7Z"/>
    </g>
  </g>
</svg>