<svg xmlns="http://www.w3.org/2000/svg" width="258.047" height="245.182" viewBox="0 0 258.047 245.182">
  <g id="Grupo_4592" data-name="Grupo 4592" transform="translate(0.001 0.001)">
    <path id="Caminho_70" data-name="Caminho 70" d="M134.057,129.375a188.048,188.048,0,0,0,30.575-3.925,281.257,281.257,0,0,0,63.3-21.7,3.039,3.039,0,0,1,3.538.22c10.582,7.191,25,.254,26.462-12.648a17.938,17.938,0,0,0-9-17.658,17.14,17.14,0,0,0-19.206,2,17.692,17.692,0,0,0-5.379,18.914c.456,1.41.113,1.871-1.071,2.412a313.049,313.049,0,0,1-39.6,15.15c-18.673,5.636-37.674,9.33-57.211,9.336a180.167,180.167,0,0,1-45.827-6.4A277.927,277.927,0,0,1,34.213,98.1c-1.123-.521-1.549-.92-.938-2.249a16.031,16.031,0,0,0,.964-9.628A17.426,17.426,0,0,0,18.877,71.937C11.791,71.061,4.5,75.429,1.46,82.375a18.015,18.015,0,0,0,4.033,20.069,16.826,16.826,0,0,0,20.469,2.231,2.533,2.533,0,0,1,2.787-.19,271.384,271.384,0,0,0,35.128,14.2,216.01,216.01,0,0,0,45.4,9.934c3.7.371,7.409.621,11.383.949-2.324,3.61-4.54,7.043-6.747,10.482Q93.336,172.1,72.784,204.174c-.742,1.159-1.35,1.381-2.737,1.012-10.406-2.775-20.737,5-21.4,15.973a17.731,17.731,0,0,0,11.3,17.645,17.031,17.031,0,0,0,19.985-6.279,17.8,17.8,0,0,0-.416-21.033,1.994,1.994,0,0,1-.185-2.805q21.1-32.7,42.1-65.465c1.975-3.074,3.954-6.147,5.959-9.262.208.24.3.325.366.426q24.412,37.354,48.84,74.7a1.6,1.6,0,0,1-.148,2.232,17.6,17.6,0,0,0,17.336,28.152c9.346-2.116,15.272-12.037,12.894-21.588a17.118,17.118,0,0,0-21.223-12.588,1.792,1.792,0,0,1-2.445-.928q-10.24-15.846-20.6-31.613c-9.393-14.374-18.791-28.745-28.357-43.374M234.513,64.967c-.261-.513-.474-.948-.7-1.376a118.568,118.568,0,0,0-29.329-35.91C176.217,4.557,144.031-4.128,108.386,1.808,81.5,6.286,58.857,19.339,40.3,39.739A122.418,122.418,0,0,0,23.57,63.418c-.633,1.154-.61,1.631.8,1.869A11.256,11.256,0,0,1,28.6,66.848c1.412.915,2.038.477,2.81-.894C54.571,24.794,98.787,2.643,144.77,9.37c26.4,3.863,48.532,16.206,66.636,36.156a113.468,113.468,0,0,1,15.169,21.413c.27.489.3,1.709,1.447.942a29.146,29.146,0,0,1,6.492-2.913M127.978,31.576C109.734,31.362,94.4,46.748,94.433,65.66c.035,19.861,15.387,33.589,32.051,34.279,19.02.785,34.526-14.484,34.862-33.223C161.7,47.121,147,31.8,127.978,31.576m120.447,91.318c0-2.715.008-5.43,0-8.147-.006-1.14-.258-1.828-1.668-1.292a11.781,11.781,0,0,1-4.81.726c-1.216-.064-1.538.32-1.466,1.559A115.518,115.518,0,0,1,209.834,201.4c-.828.9-2.169,1.689-2.364,2.711-.206,1.083,1.313,1.875,2.055,2.807.932,1.173,1.508,3.551,2.571,3.42,1.224-.15,2.27-2.017,3.345-3.184q32.67-35.5,32.986-84.256M16.656,116.549c.762-1.75-.04-2.134-1.468-2.25a15.327,15.327,0,0,1-4.742-1.128c-1.11-.473-1.4-.21-1.491,1.026a119.536,119.536,0,0,0,1.054,26.595,122.688,122.688,0,0,0,32.98,67.589c1.47,1.555,1.48,1.534,2.745-.3.418-.605.9-1.164,1.31-1.774.675-1.006,2.343-1.7,2.158-2.74-.194-1.077-1.55-1.937-2.4-2.888-21.364-23.851-31.209-51.989-30.142-84.129M129.851,245.158a97.725,97.725,0,0,0,15.882-1.186,119.877,119.877,0,0,0,23.683-6.013c.915-.332,1.315-.621.55-1.609a16.122,16.122,0,0,1-2.545-4.883c-.377-1.158-.846-1.168-1.822-.813a107.847,107.847,0,0,1-41.835,6.332,106.321,106.321,0,0,1-33.082-6.722c-1.117-.421-1.507-.254-1.921.885a19.685,19.685,0,0,1-2.12,4.28c-.892,1.323-.728,1.778.763,2.326a118.287,118.287,0,0,0,42.449,7.4" transform="translate(0 0)" fill="#fefefe"/>
    <path id="Caminho_71" data-name="Caminho 71" d="M134.057,132.514c9.565,14.629,18.964,29,28.357,43.374q10.319,15.792,20.6,31.613a1.791,1.791,0,0,0,2.445.927,17.119,17.119,0,0,1,21.223,12.589c2.378,9.552-3.548,19.472-12.894,21.588a17.6,17.6,0,0,1-17.336-28.152,1.6,1.6,0,0,0,.148-2.232q-24.445-37.331-48.84-74.7c-.066-.1-.158-.186-.366-.426-2,3.115-3.984,6.188-5.959,9.262Q100.4,179.1,79.332,211.825a1.994,1.994,0,0,0,.185,2.805,17.8,17.8,0,0,1,.416,21.033,17.032,17.032,0,0,1-19.985,6.279,17.731,17.731,0,0,1-11.3-17.645c.663-10.976,10.994-18.749,21.4-15.973,1.388.37,2,.148,2.737-1.012q20.531-32.086,41.13-64.127c2.207-3.438,4.423-6.872,6.747-10.483-3.974-.328-7.684-.578-11.383-.948a216.069,216.069,0,0,1-45.4-9.934,271.27,271.27,0,0,1-35.128-14.2,2.534,2.534,0,0,0-2.787.191,16.825,16.825,0,0,1-20.469-2.232A18.013,18.013,0,0,1,1.46,85.513C4.5,78.567,11.791,74.2,18.877,75.074A17.428,17.428,0,0,1,34.239,89.361a16.031,16.031,0,0,1-.964,9.628c-.611,1.33-.185,1.728.938,2.249a277.922,277.922,0,0,0,46.424,16.973,180.123,180.123,0,0,0,45.827,6.405c19.537-.007,38.537-3.7,57.211-9.337a312.894,312.894,0,0,0,39.6-15.149c1.184-.541,1.527-1,1.071-2.412a17.691,17.691,0,0,1,5.379-18.914,17.138,17.138,0,0,1,19.206-2,17.935,17.935,0,0,1,9,17.657c-1.461,12.9-15.881,19.839-26.462,12.648a3.039,3.039,0,0,0-3.538-.22,281.35,281.35,0,0,1-63.3,21.7,188.048,188.048,0,0,1-30.575,3.925M17.275,83.078A9.611,9.611,0,0,0,7.9,92.634c-.039,5.058,4.274,9.577,9.138,9.574a9.566,9.566,0,0,0,.24-19.13m181.961,142.4a9.387,9.387,0,0,0-9.2-9.615,9.528,9.528,0,1,0,9.2,9.615m-133.2-9.609a9.523,9.523,0,1,0,9.229,9.679,9.5,9.5,0,0,0-9.229-9.679M250.058,92.435a9.319,9.319,0,1,0-9.355,9.483,9.438,9.438,0,0,0,9.355-9.483" transform="translate(0 -3.137)" fill="#090309"/>
    <path id="Caminho_72" data-name="Caminho 72" d="M236.076,64.968a29.171,29.171,0,0,0-6.493,2.913c-1.149.765-1.176-.455-1.446-.942a113.369,113.369,0,0,0-15.169-21.413c-18.1-19.951-40.24-32.293-66.635-36.156-45.983-6.728-90.2,15.421-113.364,56.584-.772,1.371-1.4,1.809-2.81.894a11.233,11.233,0,0,0-4.232-1.561c-1.4-.239-1.428-.715-.794-1.871A122.429,122.429,0,0,1,41.866,39.74c18.553-20.4,41.2-33.453,68.083-37.931,35.644-5.936,67.831,2.749,96.093,25.873a118.571,118.571,0,0,1,29.33,35.911c.23.426.442.862.7,1.376" transform="translate(-1.562 0)" fill="#090309"/>
    <path id="Caminho_73" data-name="Caminho 73" d="M134.345,32.961c19.025.225,33.719,15.543,33.367,35.139-.335,18.738-15.841,34.008-34.862,33.221-16.664-.688-32.017-14.417-32.051-34.278-.033-18.911,15.3-34.3,33.546-34.083m-.067,60.29c13.931.014,25.5-11.69,25.53-25.819.026-14.651-11.257-26.288-25.531-26.331-14-.043-25.5,11.634-25.58,25.966-.08,14.3,11.517,26.169,25.581,26.184" transform="translate(-6.365 -1.383)" fill="#090309"/>
    <path id="Caminho_74" data-name="Caminho 74" d="M262.409,127.858q-.364,48.682-32.985,84.256c-1.075,1.168-2.121,3.033-3.345,3.185-1.062.13-1.639-2.248-2.571-3.421-.741-.932-2.262-1.723-2.055-2.806.195-1.022,1.536-1.812,2.364-2.712A115.517,115.517,0,0,0,254.462,120.7c-.072-1.239.25-1.623,1.465-1.558a11.768,11.768,0,0,0,4.811-.727c1.41-.536,1.662.152,1.668,1.293.012,2.716,0,5.431,0,8.147" transform="translate(-13.984 -4.963)" fill="#090309"/>
    <path id="Caminho_75" data-name="Caminho 75" d="M17.239,121.5c-1.067,32.14,8.778,60.277,30.142,84.129.852.951,2.208,1.812,2.4,2.888.185,1.037-1.483,1.733-2.157,2.74-.409.61-.894,1.169-1.311,1.774-1.265,1.834-1.275,1.855-2.745.3a122.682,122.682,0,0,1-32.98-67.588,119.543,119.543,0,0,1-1.054-26.6c.092-1.235.381-1.5,1.491-1.027a15.273,15.273,0,0,0,4.741,1.13c1.428.116,2.231.5,1.469,2.25" transform="translate(-0.582 -4.949)" fill="#090309"/>
    <path id="Caminho_76" data-name="Caminho 76" d="M135.654,255.238a118.288,118.288,0,0,1-42.449-7.4c-1.491-.548-1.655-1-.763-2.326a19.686,19.686,0,0,0,2.12-4.28c.414-1.139.8-1.306,1.921-.885a106.323,106.323,0,0,0,33.082,6.721,107.844,107.844,0,0,0,41.835-6.332c.976-.354,1.446-.345,1.822.813a16.125,16.125,0,0,0,2.545,4.883c.765.989.365,1.278-.55,1.609a119.871,119.871,0,0,1-23.683,6.013,97.732,97.732,0,0,1-15.882,1.186" transform="translate(-5.803 -10.08)" fill="#090309"/>
    <path id="Caminho_77" data-name="Caminho 77" d="M17.809,83.443a9.566,9.566,0,0,1-.241,19.129c-4.863,0-9.176-4.514-9.138-9.574a9.611,9.611,0,0,1,9.379-9.555" transform="translate(-0.532 -3.502)" fill="#49c6f3"/>
    <path id="Caminho_78" data-name="Caminho 78" d="M211.409,231.66a9.326,9.326,0,1,1-9.2-9.615,9.432,9.432,0,0,1,9.2,9.615" transform="translate(-12.173 -9.32)" fill="#49c6f3"/>
    <path id="Caminho_79" data-name="Caminho 79" d="M69.845,222.052a9.527,9.527,0,1,1-9.5,9.379,9.557,9.557,0,0,1,9.5-9.379" transform="translate(-3.811 -9.321)" fill="#49c6f3"/>
    <path id="Caminho_80" data-name="Caminho 80" d="M265.658,92.787a9.438,9.438,0,0,1-9.356,9.483,9.572,9.572,0,1,1,9.356-9.483" transform="translate(-15.6 -3.489)" fill="#49c6f3"/>
    <path id="Caminho_81" data-name="Caminho 81" d="M134.811,93.608c-14.064-.014-25.66-11.883-25.581-26.184.08-14.332,11.583-26.009,25.58-25.966,14.274.043,25.557,11.68,25.531,26.331-.026,14.129-11.6,25.833-25.53,25.819" transform="translate(-6.898 -1.74)" fill="#49c6f3"/>
  </g>
</svg>
