<svg xmlns="http://www.w3.org/2000/svg" width="543.6" height="253.46" viewBox="0 0 543.6 253.46">
  <g id="Grupo_4594" data-name="Grupo 4594" transform="translate(-705.087 -306.04)">
    <line id="Linha_384" data-name="Linha 384" x2="508" transform="translate(721.087 559)" fill="none" stroke="#2d4710" stroke-width="1" stroke-dasharray="5"/>
    <path id="Caminho_3183" data-name="Caminho 3183" d="M1.792,19V5.7H7.13a6.838,6.838,0,0,1,2.611.479,5.686,5.686,0,0,1,2.011,1.37,6.142,6.142,0,0,1,1.291,2.107,7.7,7.7,0,0,1,.451,2.694,7.772,7.772,0,0,1-.451,2.7,6.1,6.1,0,0,1-1.283,2.109,5.644,5.644,0,0,1-2.011,1.362A6.9,6.9,0,0,1,7.13,19Zm2.47-1.922-.189-.364H7.035A4.283,4.283,0,0,0,8.7,16.409a3.429,3.429,0,0,0,1.241-.867,3.8,3.8,0,0,0,.778-1.376,5.754,5.754,0,0,0,.27-1.816,5.684,5.684,0,0,0-.27-1.808A3.823,3.823,0,0,0,9.93,9.166a3.473,3.473,0,0,0-1.241-.875,4.226,4.226,0,0,0-1.654-.305H4.017l.246-.326ZM16,19V8.986h2.344V19ZM17.155,6.856a1.578,1.578,0,0,1-1.1-.354,1.282,1.282,0,0,1-.39-1,1.283,1.283,0,0,1,.4-.978,1.524,1.524,0,0,1,1.089-.377,1.578,1.578,0,0,1,1.1.354,1.282,1.282,0,0,1,.39,1,1.283,1.283,0,0,1-.4.978A1.524,1.524,0,0,1,17.155,6.856ZM21.3,19V8.986h2.3l.046,3.185-.325-.713a3.707,3.707,0,0,1,.726-1.363,3.877,3.877,0,0,1,1.184-.964,3,3,0,0,1,1.409-.354,3.408,3.408,0,0,1,.623.055,2.748,2.748,0,0,1,.491.131l-.625,2.565a2.952,2.952,0,0,0-.523-.179,2.49,2.49,0,0,0-.611-.076,2.3,2.3,0,0,0-.9.18,2.265,2.265,0,0,0-.744.5,2.454,2.454,0,0,0-.5.751,2.351,2.351,0,0,0-.186.945V19Zm12.3.19a5.706,5.706,0,0,1-2.79-.661,4.836,4.836,0,0,1-1.881-1.811,5.114,5.114,0,0,1-.676-2.643,5.812,5.812,0,0,1,.38-2.139,5.12,5.12,0,0,1,1.058-1.682,4.677,4.677,0,0,1,1.619-1.1,5.3,5.3,0,0,1,2.046-.39,4.508,4.508,0,0,1,4.3,2.969,5.248,5.248,0,0,1,.313,1.965l-.019.828H29.827l-.437-1.608h6.58l-.3.335v-.433A1.981,1.981,0,0,0,35.3,11.8a2.292,2.292,0,0,0-.829-.707,2.4,2.4,0,0,0-1.108-.258,3.168,3.168,0,0,0-1.566.357,2.3,2.3,0,0,0-.965,1.039,3.862,3.862,0,0,0-.328,1.68,3.359,3.359,0,0,0,.408,1.689A2.773,2.773,0,0,0,32.072,16.7a3.771,3.771,0,0,0,1.76.391,3.6,3.6,0,0,0,1.3-.226,4.534,4.534,0,0,0,1.273-.806l1.147,1.611a4.985,4.985,0,0,1-1.166.81,6.83,6.83,0,0,1-1.375.52A5.613,5.613,0,0,1,33.592,19.19ZM40.285,19V8.986H42.63V19ZM41.437,6.856a1.578,1.578,0,0,1-1.1-.354,1.282,1.282,0,0,1-.39-1,1.283,1.283,0,0,1,.4-.978,1.524,1.524,0,0,1,1.089-.377,1.578,1.578,0,0,1,1.1.354,1.282,1.282,0,0,1,.39,1,1.283,1.283,0,0,1-.4.978A1.524,1.524,0,0,1,41.437,6.856ZM46.669,19V6.437h2.344V19ZM44.7,11.157V8.986h6.5v2.171ZM57.456,19.19a5.287,5.287,0,0,1-2.68-.676,4.978,4.978,0,0,1-1.859-1.849,5.243,5.243,0,0,1-.68-2.681,5.243,5.243,0,0,1,.68-2.681,4.978,4.978,0,0,1,1.859-1.849,5.614,5.614,0,0,1,5.343,0A4.967,4.967,0,0,1,61.974,11.3a5.254,5.254,0,0,1,.679,2.681,5.254,5.254,0,0,1-.679,2.681,4.967,4.967,0,0,1-1.855,1.849A5.246,5.246,0,0,1,57.456,19.19Zm0-2.08a2.656,2.656,0,0,0,1.459-.41,2.833,2.833,0,0,0,1.007-1.117,3.317,3.317,0,0,0,.349-1.6,3.361,3.361,0,0,0-.349-1.618,2.779,2.779,0,0,0-1.007-1.11,2.843,2.843,0,0,0-2.929.008,2.83,2.83,0,0,0-1.017,1.117,3.311,3.311,0,0,0-.351,1.6,3.3,3.3,0,0,0,.351,1.6A2.829,2.829,0,0,0,55.986,16.7,2.7,2.7,0,0,0,57.456,17.11ZM68.09,19.19a6.007,6.007,0,0,1-2.387-.451,4.357,4.357,0,0,1-1.72-1.286l1.516-1.3a3.538,3.538,0,0,0,1.276.925,3.873,3.873,0,0,0,1.487.287,2.121,2.121,0,0,0,.575-.074,1.3,1.3,0,0,0,.455-.224.989.989,0,0,0,.392-.809.864.864,0,0,0-.349-.721,3.22,3.22,0,0,0-.591-.273,10.881,10.881,0,0,0-1.047-.319,8.665,8.665,0,0,1-1.714-.611,3.571,3.571,0,0,1-1.077-.786,2.555,2.555,0,0,1-.478-.821,2.972,2.972,0,0,1-.158-.993,2.471,2.471,0,0,1,.293-1.2,2.967,2.967,0,0,1,.806-.937,3.772,3.772,0,0,1,1.194-.61A4.787,4.787,0,0,1,68,8.777a5.752,5.752,0,0,1,1.466.188,5.364,5.364,0,0,1,1.331.543,4.294,4.294,0,0,1,1.052.841l-1.291,1.429a4.813,4.813,0,0,0-.781-.611,4.239,4.239,0,0,0-.87-.424,2.491,2.491,0,0,0-.812-.154,2.873,2.873,0,0,0-.646.066,1.374,1.374,0,0,0-.48.2.9.9,0,0,0-.294.334.982.982,0,0,0-.1.449,1.094,1.094,0,0,0,.118.429.954.954,0,0,0,.3.342,3.323,3.323,0,0,0,.617.3,9.01,9.01,0,0,0,1.093.331,8.929,8.929,0,0,1,1.556.547,3.322,3.322,0,0,1,.994.692,2,2,0,0,1,.509.8,3.191,3.191,0,0,1,.152,1.014,2.653,2.653,0,0,1-.508,1.6,3.412,3.412,0,0,1-1.371,1.1A4.588,4.588,0,0,1,68.09,19.19Zm6.142,3.35-.776-.943a3.8,3.8,0,0,0,1.133-.874,1.457,1.457,0,0,0,.433-.871.816.816,0,0,0-.093-.37A2.037,2.037,0,0,0,74.521,19a2.147,2.147,0,0,1-.529-.618,1.335,1.335,0,0,1-.13-.588.991.991,0,0,1,.362-.8,1.411,1.411,0,0,1,.933-.3,1.556,1.556,0,0,1,.911.285,1.911,1.911,0,0,1,.641.789,2.741,2.741,0,0,1,.232,1.158,3.357,3.357,0,0,1-.2,1.15,3.848,3.848,0,0,1-.569,1.036,4.508,4.508,0,0,1-.858.852A3.969,3.969,0,0,1,74.232,22.54ZM85.175,19V5.7h5.338a6.838,6.838,0,0,1,2.611.479,5.686,5.686,0,0,1,2.011,1.37,6.142,6.142,0,0,1,1.291,2.107,7.7,7.7,0,0,1,.451,2.694,7.772,7.772,0,0,1-.451,2.7,6.1,6.1,0,0,1-1.283,2.109,5.644,5.644,0,0,1-2.011,1.362A6.9,6.9,0,0,1,90.513,19Zm2.47-1.922-.189-.364h2.961a4.283,4.283,0,0,0,1.662-.305,3.429,3.429,0,0,0,1.241-.867,3.8,3.8,0,0,0,.778-1.376,5.754,5.754,0,0,0,.27-1.816,5.684,5.684,0,0,0-.27-1.808,3.823,3.823,0,0,0-.786-1.376,3.473,3.473,0,0,0-1.241-.875,4.226,4.226,0,0,0-1.654-.305H87.4l.246-.326Zm16.182,2.112a5.706,5.706,0,0,1-2.79-.661,4.836,4.836,0,0,1-1.881-1.811,5.114,5.114,0,0,1-.676-2.643,5.812,5.812,0,0,1,.38-2.139,5.12,5.12,0,0,1,1.058-1.682,4.677,4.677,0,0,1,1.619-1.1,5.3,5.3,0,0,1,2.046-.39,4.508,4.508,0,0,1,4.3,2.969,5.248,5.248,0,0,1,.314,1.965l-.019.828h-8.112l-.437-1.608h6.58l-.3.335v-.433a1.981,1.981,0,0,0-.37-1.022,2.292,2.292,0,0,0-.829-.707,2.4,2.4,0,0,0-1.108-.258,3.168,3.168,0,0,0-1.566.357,2.3,2.3,0,0,0-.965,1.039,3.862,3.862,0,0,0-.328,1.68,3.359,3.359,0,0,0,.408,1.689,2.773,2.773,0,0,0,1.161,1.108,3.771,3.771,0,0,0,1.76.391,3.6,3.6,0,0,0,1.3-.226,4.534,4.534,0,0,0,1.273-.806l1.147,1.611a4.985,4.985,0,0,1-1.166.81,6.83,6.83,0,0,1-1.375.52A5.613,5.613,0,0,1,103.826,19.19Zm9.781,0a6.007,6.007,0,0,1-2.387-.451,4.357,4.357,0,0,1-1.72-1.286l1.516-1.3a3.538,3.538,0,0,0,1.276.925,3.873,3.873,0,0,0,1.487.287,2.121,2.121,0,0,0,.575-.074,1.3,1.3,0,0,0,.455-.224.989.989,0,0,0,.392-.809.864.864,0,0,0-.349-.721,3.221,3.221,0,0,0-.591-.273,10.883,10.883,0,0,0-1.047-.319,8.665,8.665,0,0,1-1.714-.611,3.571,3.571,0,0,1-1.077-.786,2.555,2.555,0,0,1-.478-.821,2.972,2.972,0,0,1-.158-.993,2.471,2.471,0,0,1,.293-1.2,2.967,2.967,0,0,1,.806-.937,3.772,3.772,0,0,1,1.194-.61,4.787,4.787,0,0,1,1.437-.213,5.752,5.752,0,0,1,1.466.188,5.364,5.364,0,0,1,1.331.543,4.294,4.294,0,0,1,1.052.841l-1.291,1.429a4.813,4.813,0,0,0-.781-.611,4.239,4.239,0,0,0-.87-.424,2.491,2.491,0,0,0-.812-.154,2.873,2.873,0,0,0-.646.066,1.374,1.374,0,0,0-.48.2.9.9,0,0,0-.294.334.982.982,0,0,0-.1.449,1.094,1.094,0,0,0,.118.429.954.954,0,0,0,.3.342,3.323,3.323,0,0,0,.617.3,9.01,9.01,0,0,0,1.093.331,8.929,8.929,0,0,1,1.556.547,3.322,3.322,0,0,1,.994.692,2,2,0,0,1,.509.8,3.191,3.191,0,0,1,.152,1.014,2.653,2.653,0,0,1-.508,1.6,3.412,3.412,0,0,1-1.371,1.1A4.588,4.588,0,0,1,113.607,19.19Zm10.16,0a4.749,4.749,0,0,1-2.534-.684,4.923,4.923,0,0,1-1.764-1.864,5.43,5.43,0,0,1-.648-2.658,5.43,5.43,0,0,1,.648-2.658,4.923,4.923,0,0,1,1.764-1.864,4.749,4.749,0,0,1,2.534-.684,5.706,5.706,0,0,1,2.444.516,4.043,4.043,0,0,1,1.707,1.42l-1.288,1.562a3.357,3.357,0,0,0-.721-.721,3.789,3.789,0,0,0-.933-.514,2.85,2.85,0,0,0-2.484.218,2.882,2.882,0,0,0-1.034,1.117,3.352,3.352,0,0,0-.379,1.6,3.211,3.211,0,0,0,.392,1.591,3.065,3.065,0,0,0,1.054,1.121A2.715,2.715,0,0,0,124,17.11a2.986,2.986,0,0,0,.965-.156,3.247,3.247,0,0,0,.881-.465,4.236,4.236,0,0,0,.781-.753l1.284,1.566a4.491,4.491,0,0,1-1.764,1.363A5.626,5.626,0,0,1,123.768,19.19Zm10.509,0a5.287,5.287,0,0,1-2.68-.676,4.978,4.978,0,0,1-1.859-1.849,5.243,5.243,0,0,1-.68-2.681,5.243,5.243,0,0,1,.68-2.681A4.978,4.978,0,0,1,131.6,9.454a5.614,5.614,0,0,1,5.343,0,4.967,4.967,0,0,1,1.855,1.849,5.254,5.254,0,0,1,.679,2.681,5.254,5.254,0,0,1-.679,2.681,4.967,4.967,0,0,1-1.855,1.849A5.246,5.246,0,0,1,134.276,19.19Zm0-2.08a2.656,2.656,0,0,0,1.459-.41,2.833,2.833,0,0,0,1.007-1.117,3.317,3.317,0,0,0,.349-1.6,3.361,3.361,0,0,0-.349-1.618,2.779,2.779,0,0,0-1.007-1.11,2.844,2.844,0,0,0-2.929.008,2.83,2.83,0,0,0-1.017,1.117,3.311,3.311,0,0,0-.351,1.6,3.3,3.3,0,0,0,.351,1.6,2.829,2.829,0,0,0,1.017,1.117A2.7,2.7,0,0,0,134.276,17.11Zm12.813,2.084a4.25,4.25,0,0,1-1.292-.2,4.55,4.55,0,0,1-1.149-.543,3.817,3.817,0,0,1-.86-.767,2.237,2.237,0,0,1-.456-.874l.552-.247-.062,2.393h-2.267V4.94H143.9v6.369l-.416-.19a2.156,2.156,0,0,1,.424-.869,3.494,3.494,0,0,1,.823-.749,4.5,4.5,0,0,1,1.087-.528,3.8,3.8,0,0,1,1.2-.2,4.276,4.276,0,0,1,2.373.669,4.675,4.675,0,0,1,1.636,1.843,5.812,5.812,0,0,1,.6,2.683,5.934,5.934,0,0,1-.591,2.693,4.65,4.65,0,0,1-1.622,1.854A4.164,4.164,0,0,1,147.089,19.194Zm-.493-2.061a2.549,2.549,0,0,0,1.43-.408,2.832,2.832,0,0,0,.981-1.117,3.579,3.579,0,0,0,.358-1.635,3.621,3.621,0,0,0-.351-1.623,2.7,2.7,0,0,0-.973-1.11,2.825,2.825,0,0,0-2.893,0,2.752,2.752,0,0,0-.982,1.11,3.881,3.881,0,0,0,0,3.258,2.826,2.826,0,0,0,.982,1.117A2.585,2.585,0,0,0,146.6,17.133Zm11.828,2.057a5.706,5.706,0,0,1-2.79-.661,4.836,4.836,0,0,1-1.881-1.811,5.114,5.114,0,0,1-.676-2.643,5.812,5.812,0,0,1,.38-2.139,5.12,5.12,0,0,1,1.058-1.682,4.677,4.677,0,0,1,1.619-1.1,5.3,5.3,0,0,1,2.046-.39,4.508,4.508,0,0,1,4.3,2.969,5.248,5.248,0,0,1,.314,1.965l-.019.828h-8.112l-.437-1.608h6.58l-.3.335v-.433a1.981,1.981,0,0,0-.37-1.022,2.292,2.292,0,0,0-.829-.707,2.4,2.4,0,0,0-1.108-.258,3.168,3.168,0,0,0-1.566.357,2.3,2.3,0,0,0-.965,1.039,3.862,3.862,0,0,0-.328,1.68,3.359,3.359,0,0,0,.408,1.689A2.773,2.773,0,0,0,156.9,16.7a3.771,3.771,0,0,0,1.76.391,3.6,3.6,0,0,0,1.3-.226,4.534,4.534,0,0,0,1.273-.806l1.147,1.611a4.985,4.985,0,0,1-1.166.81,6.831,6.831,0,0,1-1.375.52A5.613,5.613,0,0,1,158.423,19.19Zm6.425-.19V8.986h2.3l.046,3.185-.325-.713a3.707,3.707,0,0,1,.726-1.363,3.877,3.877,0,0,1,1.184-.964,3,3,0,0,1,1.409-.354,3.408,3.408,0,0,1,.623.055,2.748,2.748,0,0,1,.491.131l-.625,2.565a2.952,2.952,0,0,0-.523-.179,2.49,2.49,0,0,0-.611-.076,2.3,2.3,0,0,0-.9.18,2.265,2.265,0,0,0-.744.5,2.454,2.454,0,0,0-.5.751,2.351,2.351,0,0,0-.186.945V19Zm9.477,0V6.437h2.344V19Zm-1.97-7.843V8.986h6.5v2.171Zm11.972,8.029a3.939,3.939,0,0,1-2.254-.682,4.843,4.843,0,0,1-1.611-1.862,5.813,5.813,0,0,1-.6-2.674,5.764,5.764,0,0,1,.606-2.685,4.685,4.685,0,0,1,1.649-1.839,4.275,4.275,0,0,1,2.354-.667,4.192,4.192,0,0,1,1.39.22,3.533,3.533,0,0,1,1.105.615,3.674,3.674,0,0,1,.79.909,3.182,3.182,0,0,1,.422,1.1l-.507-.125V8.986h2.344V19h-2.363V16.6l.537-.091a2.916,2.916,0,0,1-.477,1,3.708,3.708,0,0,1-.872.855,4.616,4.616,0,0,1-1.162.594A4.082,4.082,0,0,1,184.327,19.186Zm.633-2.076a2.631,2.631,0,0,0,1.447-.4,2.7,2.7,0,0,0,.975-1.108,3.645,3.645,0,0,0,.351-1.635,3.574,3.574,0,0,0-.351-1.615,2.709,2.709,0,0,0-.975-1.1,2.632,2.632,0,0,0-1.447-.4,2.558,2.558,0,0,0-1.423.4,2.734,2.734,0,0,0-.965,1.1,3.574,3.574,0,0,0-.351,1.615,3.645,3.645,0,0,0,.351,1.635,2.727,2.727,0,0,0,.965,1.108A2.557,2.557,0,0,0,184.96,17.11Zm11.132,2.08a6.007,6.007,0,0,1-2.387-.451,4.357,4.357,0,0,1-1.72-1.286l1.516-1.3a3.538,3.538,0,0,0,1.276.925,3.873,3.873,0,0,0,1.487.287,2.121,2.121,0,0,0,.575-.074,1.3,1.3,0,0,0,.455-.224.989.989,0,0,0,.392-.809.864.864,0,0,0-.349-.721,3.221,3.221,0,0,0-.591-.273,10.883,10.883,0,0,0-1.047-.319,8.665,8.665,0,0,1-1.714-.611,3.571,3.571,0,0,1-1.077-.786,2.555,2.555,0,0,1-.478-.821,2.971,2.971,0,0,1-.158-.993,2.471,2.471,0,0,1,.293-1.2,2.967,2.967,0,0,1,.806-.937,3.772,3.772,0,0,1,1.194-.61A4.787,4.787,0,0,1,196,8.777a5.753,5.753,0,0,1,1.466.188,5.365,5.365,0,0,1,1.331.543,4.294,4.294,0,0,1,1.052.841l-1.291,1.429a4.812,4.812,0,0,0-.781-.611,4.239,4.239,0,0,0-.87-.424,2.491,2.491,0,0,0-.812-.154,2.873,2.873,0,0,0-.646.066,1.374,1.374,0,0,0-.48.2.9.9,0,0,0-.294.334.982.982,0,0,0-.1.449,1.094,1.094,0,0,0,.118.429.954.954,0,0,0,.3.342,3.324,3.324,0,0,0,.617.3,9.011,9.011,0,0,0,1.093.331,8.929,8.929,0,0,1,1.556.547,3.322,3.322,0,0,1,.994.692,2,2,0,0,1,.509.8,3.191,3.191,0,0,1,.152,1.014,2.653,2.653,0,0,1-.508,1.6,3.412,3.412,0,0,1-1.371,1.1A4.588,4.588,0,0,1,196.092,19.19Zm6.142,3.35-.776-.943a3.8,3.8,0,0,0,1.133-.874,1.457,1.457,0,0,0,.433-.871.816.816,0,0,0-.093-.37,2.037,2.037,0,0,0-.409-.484,2.147,2.147,0,0,1-.529-.618,1.335,1.335,0,0,1-.13-.588.991.991,0,0,1,.362-.8,1.411,1.411,0,0,1,.933-.3,1.556,1.556,0,0,1,.911.285,1.911,1.911,0,0,1,.641.789,2.741,2.741,0,0,1,.232,1.158,3.357,3.357,0,0,1-.2,1.15,3.848,3.848,0,0,1-.569,1.036,4.508,4.508,0,0,1-.858.852A3.969,3.969,0,0,1,202.234,22.54ZM211.685,19l5.188-13.3H219.2l5.15,13.3h-2.568l-2.854-7.569q-.088-.226-.247-.719t-.349-1.068q-.19-.575-.349-1.078t-.228-.744l.479-.015q-.114.377-.266.858t-.321.995q-.169.514-.338.985t-.3.848L214.163,19Zm2.357-3.035.849-2.142h6.069l.917,2.142ZM228.266,19,224.048,8.986H226.6l2.851,7.49-.5.136,3.013-7.626h2.479L230.021,19Zm11.4.186a3.939,3.939,0,0,1-2.254-.682,4.843,4.843,0,0,1-1.611-1.862,5.813,5.813,0,0,1-.6-2.674,5.764,5.764,0,0,1,.606-2.685,4.685,4.685,0,0,1,1.649-1.839,4.275,4.275,0,0,1,2.354-.667A4.192,4.192,0,0,1,241.2,9a3.533,3.533,0,0,1,1.105.615,3.674,3.674,0,0,1,.79.909,3.182,3.182,0,0,1,.422,1.1l-.507-.125V8.986h2.344V19H243V16.6l.537-.091a2.916,2.916,0,0,1-.477,1,3.708,3.708,0,0,1-.872.855,4.616,4.616,0,0,1-1.162.594A4.082,4.082,0,0,1,239.671,19.186Zm.633-2.076a2.631,2.631,0,0,0,1.447-.4,2.7,2.7,0,0,0,.975-1.108,3.645,3.645,0,0,0,.351-1.635,3.574,3.574,0,0,0-.351-1.615,2.709,2.709,0,0,0-.975-1.1,2.632,2.632,0,0,0-1.447-.4,2.558,2.558,0,0,0-1.423.4,2.734,2.734,0,0,0-.965,1.1,3.574,3.574,0,0,0-.351,1.615,3.645,3.645,0,0,0,.351,1.635,2.727,2.727,0,0,0,.965,1.108A2.557,2.557,0,0,0,240.3,17.11ZM248.08,19V8.986h2.286l.039,2.052-.439.228a2.9,2.9,0,0,1,.743-1.237,4.308,4.308,0,0,1,1.309-.906,3.752,3.752,0,0,1,1.57-.346,3.705,3.705,0,0,1,1.908.452,2.782,2.782,0,0,1,1.154,1.366,5.9,5.9,0,0,1,.386,2.285V19H254.69V13.053a3.345,3.345,0,0,0-.209-1.27,1.429,1.429,0,0,0-.641-.74,2,2,0,0,0-1.066-.2,2.636,2.636,0,0,0-.939.161,2.241,2.241,0,0,0-.741.453,2.152,2.152,0,0,0-.493.675,1.944,1.944,0,0,0-.178.831V19H248.08Zm15.878.19a4.754,4.754,0,0,1-2.527-.684,4.9,4.9,0,0,1-1.767-1.862,5.44,5.44,0,0,1-.646-2.66,5.44,5.44,0,0,1,.646-2.66,4.9,4.9,0,0,1,1.767-1.862,4.754,4.754,0,0,1,2.527-.684,5.738,5.738,0,0,1,2.451.513,4.053,4.053,0,0,1,1.71,1.425l-1.292,1.558a3.251,3.251,0,0,0-.722-.722,3.941,3.941,0,0,0-.931-.513,2.819,2.819,0,0,0-2.479.219,2.9,2.9,0,0,0-1.035,1.121,3.358,3.358,0,0,0-.38,1.606,3.237,3.237,0,0,0,.389,1.6,3.041,3.041,0,0,0,1.055,1.121,2.728,2.728,0,0,0,1.482.418,2.907,2.907,0,0,0,.96-.161,3.382,3.382,0,0,0,.884-.465,4,4,0,0,0,.779-.76l1.292,1.577a4.662,4.662,0,0,1-1.776,1.358A5.617,5.617,0,0,1,263.958,19.19Zm-1.786,4.465-.133-1.159a3.319,3.319,0,0,0,.893-.133,2.733,2.733,0,0,0,.8-.351q.323-.218.323-.446a.433.433,0,0,0-.285-.39,2.669,2.669,0,0,0-.646-.218,3.171,3.171,0,0,0-.646-.076l-.285-.209,1.349-2.128h1.273l-.836,1.311a2.687,2.687,0,0,1,1.444.637,1.546,1.546,0,0,1,.475,1.149,1.316,1.316,0,0,1-.342.912,2.732,2.732,0,0,1-.893.637,4.791,4.791,0,0,1-1.206.37A6.35,6.35,0,0,1,262.172,23.655Zm12.3-4.465a5.287,5.287,0,0,1-2.68-.676,4.978,4.978,0,0,1-1.859-1.849,5.242,5.242,0,0,1-.68-2.681,5.242,5.242,0,0,1,.68-2.681,4.978,4.978,0,0,1,1.859-1.849,5.615,5.615,0,0,1,5.343,0A4.967,4.967,0,0,1,278.99,11.3a5.254,5.254,0,0,1,.678,2.681,5.254,5.254,0,0,1-.678,2.681,4.967,4.967,0,0,1-1.855,1.849A5.246,5.246,0,0,1,274.471,19.19Zm0-2.08a2.656,2.656,0,0,0,1.459-.41,2.833,2.833,0,0,0,1.007-1.117,3.317,3.317,0,0,0,.349-1.6,3.361,3.361,0,0,0-.349-1.618,2.779,2.779,0,0,0-1.007-1.11,2.843,2.843,0,0,0-2.929.008,2.83,2.83,0,0,0-1.017,1.117,3.311,3.311,0,0,0-.351,1.6,3.3,3.3,0,0,0,.351,1.6A2.829,2.829,0,0,0,273,16.7,2.7,2.7,0,0,0,274.471,17.11Zm10.634,2.08a6.007,6.007,0,0,1-2.387-.451A4.357,4.357,0,0,1,281,17.453l1.516-1.3a3.538,3.538,0,0,0,1.276.925,3.873,3.873,0,0,0,1.487.287,2.121,2.121,0,0,0,.575-.074,1.3,1.3,0,0,0,.455-.224.989.989,0,0,0,.392-.809.864.864,0,0,0-.349-.721,3.222,3.222,0,0,0-.591-.273,10.88,10.88,0,0,0-1.047-.319A8.665,8.665,0,0,1,283,14.336a3.571,3.571,0,0,1-1.077-.786,2.556,2.556,0,0,1-.478-.821,2.972,2.972,0,0,1-.158-.993,2.471,2.471,0,0,1,.293-1.2,2.968,2.968,0,0,1,.806-.937,3.772,3.772,0,0,1,1.194-.61,4.786,4.786,0,0,1,1.437-.213,5.753,5.753,0,0,1,1.466.188,5.365,5.365,0,0,1,1.331.543,4.293,4.293,0,0,1,1.052.841l-1.291,1.429a4.813,4.813,0,0,0-.781-.611,4.239,4.239,0,0,0-.87-.424,2.492,2.492,0,0,0-.812-.154,2.873,2.873,0,0,0-.646.066,1.374,1.374,0,0,0-.48.2.9.9,0,0,0-.294.334.982.982,0,0,0-.1.449,1.094,1.094,0,0,0,.118.429.954.954,0,0,0,.3.342,3.323,3.323,0,0,0,.617.3,9.009,9.009,0,0,0,1.093.331,8.929,8.929,0,0,1,1.556.547,3.322,3.322,0,0,1,.994.692,2,2,0,0,1,.509.8,3.191,3.191,0,0,1,.152,1.014,2.653,2.653,0,0,1-.508,1.6,3.412,3.412,0,0,1-1.371,1.1A4.588,4.588,0,0,1,285.106,19.19Zm6.142,3.35-.776-.943a3.8,3.8,0,0,0,1.133-.874,1.457,1.457,0,0,0,.433-.871.816.816,0,0,0-.093-.37,2.037,2.037,0,0,0-.409-.484,2.147,2.147,0,0,1-.529-.618,1.334,1.334,0,0,1-.13-.588.991.991,0,0,1,.362-.8,1.411,1.411,0,0,1,.933-.3,1.556,1.556,0,0,1,.911.285,1.91,1.91,0,0,1,.641.789,2.741,2.741,0,0,1,.232,1.158,3.356,3.356,0,0,1-.2,1.15,3.848,3.848,0,0,1-.569,1.036,4.507,4.507,0,0,1-.858.852A3.969,3.969,0,0,1,291.248,22.54Zm16.571-3.35a6.764,6.764,0,0,1-2.625-.5,6.055,6.055,0,0,1-2.076-1.419,6.427,6.427,0,0,1-1.359-2.179,7.7,7.7,0,0,1-.479-2.763,6.939,6.939,0,0,1,.511-2.68,6.727,6.727,0,0,1,1.424-2.164,6.488,6.488,0,0,1,2.127-1.442,6.708,6.708,0,0,1,2.637-.513,6.426,6.426,0,0,1,1.879.279,6.342,6.342,0,0,1,1.68.786,5.276,5.276,0,0,1,1.276,1.176l-1.589,1.719a6.415,6.415,0,0,0-1.015-.854,4.424,4.424,0,0,0-1.082-.533,3.683,3.683,0,0,0-1.157-.184,4.123,4.123,0,0,0-1.634.324,4,4,0,0,0-1.325.909,4.24,4.24,0,0,0-.886,1.4,4.815,4.815,0,0,0-.323,1.792,5.1,5.1,0,0,0,.315,1.833,4.018,4.018,0,0,0,.892,1.408,3.884,3.884,0,0,0,1.382.9,4.91,4.91,0,0,0,1.785.311,4.294,4.294,0,0,0,1.2-.171,4.45,4.45,0,0,0,1.1-.484,4.823,4.823,0,0,0,.919-.731l1.216,1.958a4.345,4.345,0,0,1-1.213.935,7.235,7.235,0,0,1-1.7.655A7.615,7.615,0,0,1,307.818,19.19Zm11.522,0a5.287,5.287,0,0,1-2.68-.676,4.978,4.978,0,0,1-1.859-1.849,5.242,5.242,0,0,1-.68-2.681,5.242,5.242,0,0,1,.68-2.681,4.978,4.978,0,0,1,1.859-1.849,5.615,5.615,0,0,1,5.343,0,4.967,4.967,0,0,1,1.855,1.849,5.254,5.254,0,0,1,.678,2.681,5.254,5.254,0,0,1-.678,2.681A4.967,4.967,0,0,1,322,18.514,5.246,5.246,0,0,1,319.341,19.19Zm0-2.08a2.656,2.656,0,0,0,1.459-.41,2.833,2.833,0,0,0,1.007-1.117,3.317,3.317,0,0,0,.349-1.6,3.361,3.361,0,0,0-.349-1.618,2.779,2.779,0,0,0-1.007-1.11,2.843,2.843,0,0,0-2.929.008,2.83,2.83,0,0,0-1.017,1.117,3.311,3.311,0,0,0-.351,1.6,3.3,3.3,0,0,0,.351,1.6,2.829,2.829,0,0,0,1.017,1.117A2.7,2.7,0,0,0,319.341,17.11ZM326.619,19V8.986h2.286l.039,2.052-.439.228a2.9,2.9,0,0,1,.743-1.237,4.308,4.308,0,0,1,1.309-.906,3.752,3.752,0,0,1,1.57-.346,3.706,3.706,0,0,1,1.908.452,2.782,2.782,0,0,1,1.154,1.366,5.9,5.9,0,0,1,.386,2.285V19H333.23V13.053a3.345,3.345,0,0,0-.209-1.27,1.429,1.429,0,0,0-.641-.74,2,2,0,0,0-1.066-.2,2.636,2.636,0,0,0-.939.161,2.241,2.241,0,0,0-.741.453,2.153,2.153,0,0,0-.493.675,1.944,1.944,0,0,0-.178.831V19h-2.344Zm18.667,4.18V16.6l.477.054a1.743,1.743,0,0,1-.333.914,3.423,3.423,0,0,1-.815.813,4.387,4.387,0,0,1-1.125.585,3.823,3.823,0,0,1-1.28.218,4.324,4.324,0,0,1-2.388-.674,4.734,4.734,0,0,1-1.658-1.847,5.742,5.742,0,0,1-.608-2.681,5.826,5.826,0,0,1,.6-2.685,4.7,4.7,0,0,1,1.637-1.847,4.405,4.405,0,0,1,3.752-.443,4.677,4.677,0,0,1,1.195.611,3.345,3.345,0,0,1,.845.851,1.849,1.849,0,0,1,.335.965l-.613.065.043-2.529h2.286V23.18Zm-2.693-6.07a2.631,2.631,0,0,0,1.447-.4,2.713,2.713,0,0,0,.975-1.1,3.6,3.6,0,0,0,.351-1.628,3.658,3.658,0,0,0-.351-1.638,2.7,2.7,0,0,0-.975-1.11,2.632,2.632,0,0,0-1.447-.4,2.586,2.586,0,0,0-1.446.406,2.757,2.757,0,0,0-.973,1.117,3.923,3.923,0,0,0,0,3.243,2.706,2.706,0,0,0,.973,1.108A2.622,2.622,0,0,0,342.593,17.11Zm11.238,2.083a3.484,3.484,0,0,1-1.874-.49,3.2,3.2,0,0,1-1.216-1.389,4.984,4.984,0,0,1-.426-2.149V8.986h2.344v5.69a3.327,3.327,0,0,0,.248,1.346,1.922,1.922,0,0,0,.719.868,2.055,2.055,0,0,0,1.138.3,2.473,2.473,0,0,0,.908-.161,2.063,2.063,0,0,0,1.181-1.153,2.259,2.259,0,0,0,.171-.881V8.986h2.344V19h-2.278l-.046-2.082.419-.228a3.283,3.283,0,0,1-.762,1.275,3.962,3.962,0,0,1-1.279.9A3.863,3.863,0,0,1,353.831,19.194ZM362.366,19V8.986h2.344V19Zm1.151-12.144a1.578,1.578,0,0,1-1.1-.354,1.282,1.282,0,0,1-.39-1,1.283,1.283,0,0,1,.4-.978,1.524,1.524,0,0,1,1.089-.377,1.578,1.578,0,0,1,1.1.354,1.282,1.282,0,0,1,.39,1,1.283,1.283,0,0,1-.4.978A1.524,1.524,0,0,1,363.517,6.856Zm7.5,12.334a6.007,6.007,0,0,1-2.387-.451,4.357,4.357,0,0,1-1.72-1.286l1.516-1.3a3.538,3.538,0,0,0,1.276.925,3.873,3.873,0,0,0,1.487.287,2.121,2.121,0,0,0,.575-.074,1.3,1.3,0,0,0,.455-.224.989.989,0,0,0,.392-.809.864.864,0,0,0-.349-.721,3.222,3.222,0,0,0-.591-.273,10.88,10.88,0,0,0-1.047-.319,8.665,8.665,0,0,1-1.714-.611,3.571,3.571,0,0,1-1.077-.786,2.556,2.556,0,0,1-.478-.821,2.972,2.972,0,0,1-.158-.993,2.471,2.471,0,0,1,.293-1.2,2.968,2.968,0,0,1,.806-.937,3.772,3.772,0,0,1,1.194-.61,4.786,4.786,0,0,1,1.437-.213,5.753,5.753,0,0,1,1.466.188,5.365,5.365,0,0,1,1.331.543,4.293,4.293,0,0,1,1.052.841l-1.291,1.429a4.813,4.813,0,0,0-.781-.611,4.239,4.239,0,0,0-.87-.424,2.492,2.492,0,0,0-.812-.154,2.873,2.873,0,0,0-.646.066,1.374,1.374,0,0,0-.48.2.9.9,0,0,0-.294.334.982.982,0,0,0-.1.449,1.094,1.094,0,0,0,.118.429.954.954,0,0,0,.3.342,3.323,3.323,0,0,0,.617.3,9.009,9.009,0,0,0,1.093.331,8.929,8.929,0,0,1,1.556.547,3.322,3.322,0,0,1,.994.692,2,2,0,0,1,.509.8,3.191,3.191,0,0,1,.152,1.014,2.653,2.653,0,0,1-.508,1.6,3.412,3.412,0,0,1-1.371,1.1A4.588,4.588,0,0,1,371.014,19.19Zm6.945-.19V6.437H380.3V19Zm-1.97-7.843V8.986h6.5v2.171Zm11.972,8.029a3.939,3.939,0,0,1-2.254-.682,4.843,4.843,0,0,1-1.611-1.862,5.813,5.813,0,0,1-.6-2.674,5.764,5.764,0,0,1,.606-2.685,4.685,4.685,0,0,1,1.649-1.839,4.275,4.275,0,0,1,2.354-.667,4.192,4.192,0,0,1,1.39.22,3.533,3.533,0,0,1,1.105.615,3.674,3.674,0,0,1,.79.909,3.182,3.182,0,0,1,.422,1.1l-.507-.125V8.986h2.344V19h-2.363V16.6l.537-.091a2.916,2.916,0,0,1-.477,1,3.708,3.708,0,0,1-.872.855,4.615,4.615,0,0,1-1.162.594A4.082,4.082,0,0,1,387.961,19.186Zm.633-2.076a2.631,2.631,0,0,0,1.447-.4,2.7,2.7,0,0,0,.975-1.108,3.645,3.645,0,0,0,.351-1.635,3.574,3.574,0,0,0-.351-1.615,2.708,2.708,0,0,0-.975-1.1,2.632,2.632,0,0,0-1.447-.4,2.558,2.558,0,0,0-1.423.4,2.734,2.734,0,0,0-.965,1.1,3.574,3.574,0,0,0-.351,1.615,3.645,3.645,0,0,0,.351,1.635,2.727,2.727,0,0,0,.965,1.108A2.557,2.557,0,0,0,388.593,17.11Zm11.132,2.08a6.007,6.007,0,0,1-2.387-.451,4.357,4.357,0,0,1-1.72-1.286l1.516-1.3a3.538,3.538,0,0,0,1.276.925,3.873,3.873,0,0,0,1.487.287,2.121,2.121,0,0,0,.575-.074,1.3,1.3,0,0,0,.455-.224.989.989,0,0,0,.392-.809.864.864,0,0,0-.349-.721,3.222,3.222,0,0,0-.591-.273,10.88,10.88,0,0,0-1.047-.319,8.665,8.665,0,0,1-1.714-.611,3.571,3.571,0,0,1-1.077-.786,2.556,2.556,0,0,1-.478-.821,2.972,2.972,0,0,1-.158-.993,2.471,2.471,0,0,1,.293-1.2A2.968,2.968,0,0,1,397,9.6a3.772,3.772,0,0,1,1.194-.61,4.786,4.786,0,0,1,1.437-.213,5.753,5.753,0,0,1,1.466.188,5.365,5.365,0,0,1,1.331.543,4.293,4.293,0,0,1,1.052.841l-1.291,1.429a4.813,4.813,0,0,0-.781-.611,4.239,4.239,0,0,0-.87-.424,2.492,2.492,0,0,0-.812-.154,2.873,2.873,0,0,0-.646.066,1.374,1.374,0,0,0-.48.2.9.9,0,0,0-.294.334.982.982,0,0,0-.1.449,1.094,1.094,0,0,0,.118.429.954.954,0,0,0,.3.342,3.323,3.323,0,0,0,.617.3,9.009,9.009,0,0,0,1.093.331,8.929,8.929,0,0,1,1.556.547,3.322,3.322,0,0,1,.994.692,2,2,0,0,1,.509.8,3.191,3.191,0,0,1,.152,1.014,2.653,2.653,0,0,1-.508,1.6,3.412,3.412,0,0,1-1.371,1.1A4.588,4.588,0,0,1,399.726,19.19Zm16.153,0a5.706,5.706,0,0,1-2.79-.661,4.836,4.836,0,0,1-1.881-1.811,5.114,5.114,0,0,1-.676-2.643,5.813,5.813,0,0,1,.38-2.139,5.12,5.12,0,0,1,1.058-1.682,4.678,4.678,0,0,1,1.619-1.1,5.3,5.3,0,0,1,2.046-.39,4.508,4.508,0,0,1,4.3,2.969,5.249,5.249,0,0,1,.313,1.965l-.019.828h-8.112l-.437-1.608h6.58l-.3.335v-.433a1.981,1.981,0,0,0-.37-1.022,2.292,2.292,0,0,0-.829-.707,2.4,2.4,0,0,0-1.108-.258,3.168,3.168,0,0,0-1.566.357,2.3,2.3,0,0,0-.965,1.039,3.862,3.862,0,0,0-.328,1.68A3.359,3.359,0,0,0,413.2,15.6,2.773,2.773,0,0,0,414.36,16.7a3.771,3.771,0,0,0,1.76.391,3.6,3.6,0,0,0,1.3-.226,4.534,4.534,0,0,0,1.273-.806l1.147,1.611a4.985,4.985,0,0,1-1.166.81,6.829,6.829,0,0,1-1.375.52A5.613,5.613,0,0,1,415.879,19.19ZM427.914,19V16.81H430.1V7.89h-2.186V5.7h6.841V7.89H432.57V16.81h2.186V19Zm9.581,0V8.986h2.286l.039,2.052-.439.228a2.9,2.9,0,0,1,.743-1.237,4.308,4.308,0,0,1,1.309-.906A3.752,3.752,0,0,1,443,8.777a3.706,3.706,0,0,1,1.908.452,2.782,2.782,0,0,1,1.154,1.366,5.9,5.9,0,0,1,.386,2.285V19h-2.344V13.053a3.345,3.345,0,0,0-.209-1.27,1.429,1.429,0,0,0-.641-.74,2,2,0,0,0-1.066-.2,2.636,2.636,0,0,0-.939.161,2.241,2.241,0,0,0-.741.453,2.153,2.153,0,0,0-.493.675,1.944,1.944,0,0,0-.178.831V19H437.5Zm15.883.19a4.749,4.749,0,0,1-2.534-.684,4.923,4.923,0,0,1-1.764-1.864,5.43,5.43,0,0,1-.648-2.658,5.43,5.43,0,0,1,.648-2.658,4.923,4.923,0,0,1,1.764-1.864,4.749,4.749,0,0,1,2.534-.684,5.706,5.706,0,0,1,2.444.516,4.043,4.043,0,0,1,1.707,1.42l-1.288,1.562a3.357,3.357,0,0,0-.721-.721,3.79,3.79,0,0,0-.933-.514,2.85,2.85,0,0,0-2.484.218,2.882,2.882,0,0,0-1.034,1.117,3.352,3.352,0,0,0-.379,1.6,3.211,3.211,0,0,0,.392,1.591,3.065,3.065,0,0,0,1.055,1.121,2.715,2.715,0,0,0,1.478.417,2.986,2.986,0,0,0,.965-.156,3.247,3.247,0,0,0,.881-.465,4.235,4.235,0,0,0,.781-.753l1.284,1.566a4.491,4.491,0,0,1-1.764,1.363A5.626,5.626,0,0,1,453.378,19.19Zm5.958-.19V4.94h2.344V19Zm8.476.194a3.484,3.484,0,0,1-1.874-.49,3.2,3.2,0,0,1-1.216-1.389,4.984,4.984,0,0,1-.426-2.149V8.986h2.344v5.69a3.327,3.327,0,0,0,.248,1.346,1.922,1.922,0,0,0,.719.868,2.055,2.055,0,0,0,1.138.3,2.473,2.473,0,0,0,.908-.161,2.063,2.063,0,0,0,1.181-1.153,2.259,2.259,0,0,0,.171-.881V8.986h2.344V19h-2.278l-.046-2.082.419-.228a3.283,3.283,0,0,1-.762,1.275,3.962,3.962,0,0,1-1.279.9A3.863,3.863,0,0,1,467.813,19.194Zm11.622,0a6.007,6.007,0,0,1-2.387-.451,4.357,4.357,0,0,1-1.72-1.286l1.516-1.3a3.538,3.538,0,0,0,1.276.925,3.873,3.873,0,0,0,1.487.287,2.121,2.121,0,0,0,.575-.074,1.3,1.3,0,0,0,.455-.224.989.989,0,0,0,.392-.809.864.864,0,0,0-.349-.721,3.222,3.222,0,0,0-.591-.273,10.88,10.88,0,0,0-1.047-.319,8.665,8.665,0,0,1-1.714-.611,3.571,3.571,0,0,1-1.077-.786,2.556,2.556,0,0,1-.478-.821,2.972,2.972,0,0,1-.158-.993,2.471,2.471,0,0,1,.293-1.2,2.968,2.968,0,0,1,.806-.937,3.772,3.772,0,0,1,1.194-.61,4.786,4.786,0,0,1,1.437-.213,5.753,5.753,0,0,1,1.466.188,5.365,5.365,0,0,1,1.331.543,4.293,4.293,0,0,1,1.052.841L481.9,11.779a4.813,4.813,0,0,0-.781-.611,4.239,4.239,0,0,0-.87-.424,2.492,2.492,0,0,0-.812-.154,2.873,2.873,0,0,0-.646.066,1.374,1.374,0,0,0-.48.2.9.9,0,0,0-.294.334.982.982,0,0,0-.1.449,1.094,1.094,0,0,0,.118.429.954.954,0,0,0,.3.342,3.323,3.323,0,0,0,.617.3,9.009,9.009,0,0,0,1.093.331,8.929,8.929,0,0,1,1.556.547,3.322,3.322,0,0,1,.994.692,2,2,0,0,1,.509.8,3.191,3.191,0,0,1,.152,1.014,2.653,2.653,0,0,1-.508,1.6,3.412,3.412,0,0,1-1.371,1.1A4.588,4.588,0,0,1,479.435,19.19Zm9.642,0a3.9,3.9,0,0,1-2.242-.684,4.935,4.935,0,0,1-1.615-1.862,5.756,5.756,0,0,1-.608-2.679,5.756,5.756,0,0,1,.608-2.679,4.671,4.671,0,0,1,1.653-1.843,4.3,4.3,0,0,1,2.356-.665A4.192,4.192,0,0,1,490.616,9a3.471,3.471,0,0,1,1.1.618,3.718,3.718,0,0,1,.788.912,3.3,3.3,0,0,1,.428,1.1l-.513-.133V8.987h2.356V19H492.4V16.606l.551-.095a2.965,2.965,0,0,1-.484,1,3.742,3.742,0,0,1-.874.855,4.776,4.776,0,0,1-1.159.6A4,4,0,0,1,489.077,19.19Zm.646-2.071a2.631,2.631,0,0,0,1.444-.4,2.7,2.7,0,0,0,.978-1.111,3.669,3.669,0,0,0,.352-1.643,3.564,3.564,0,0,0-.352-1.615,2.713,2.713,0,0,0-.978-1.1,2.631,2.631,0,0,0-1.444-.4,2.584,2.584,0,0,0-1.435.4,2.671,2.671,0,0,0-.96,1.1,3.647,3.647,0,0,0-.342,1.615,3.755,3.755,0,0,0,.342,1.643,2.659,2.659,0,0,0,.96,1.111A2.584,2.584,0,0,0,489.723,17.119Zm1.406-9.8a1.51,1.51,0,0,1-.646-.133,3.372,3.372,0,0,1-.627-.4,4,4,0,0,0-.532-.418.681.681,0,0,0-.342-.114.566.566,0,0,0-.446.257,1.679,1.679,0,0,0-.276.789l-1.425-.209a2.686,2.686,0,0,1,.589-1.691,1.878,1.878,0,0,1,1.539-.7,1.448,1.448,0,0,1,.637.133,4.2,4.2,0,0,1,.617.38q.342.266.522.4a.6.6,0,0,0,.352.133.556.556,0,0,0,.456-.256,1.594,1.594,0,0,0,.247-.769l1.444.209a2.948,2.948,0,0,1-.285,1.188,2.193,2.193,0,0,1-.732.883A1.868,1.868,0,0,1,491.129,7.315ZM502.074,19.19a5.287,5.287,0,0,1-2.68-.676,4.978,4.978,0,0,1-1.859-1.849,5.242,5.242,0,0,1-.68-2.681,5.242,5.242,0,0,1,.68-2.681,4.978,4.978,0,0,1,1.859-1.849,5.615,5.615,0,0,1,5.343,0,4.967,4.967,0,0,1,1.855,1.849,5.254,5.254,0,0,1,.678,2.681,5.254,5.254,0,0,1-.678,2.681,4.967,4.967,0,0,1-1.855,1.849A5.246,5.246,0,0,1,502.074,19.19Zm0-2.08a2.656,2.656,0,0,0,1.459-.41,2.833,2.833,0,0,0,1.007-1.117,3.317,3.317,0,0,0,.349-1.6,3.361,3.361,0,0,0-.349-1.618,2.779,2.779,0,0,0-1.007-1.11,2.843,2.843,0,0,0-2.929.008,2.83,2.83,0,0,0-1.017,1.117,3.311,3.311,0,0,0-.351,1.6,3.3,3.3,0,0,0,.351,1.6A2.829,2.829,0,0,0,500.6,16.7,2.7,2.7,0,0,0,502.074,17.11Z" transform="translate(721.087 520)" fill="#112426"/>
    <g id="Grupo_4590" data-name="Grupo 4590" transform="translate(474.087 -12)">
      <rect id="Retângulo_1908" data-name="Retângulo 1908" width="524" height="54" transform="translate(231 370)" fill="#e8d6a3"/>
      <path id="Caminho_3182" data-name="Caminho 3182" d="M10.6,40.4a13.562,13.562,0,0,1-3.12-.34,10.715,10.715,0,0,1-2.6-.96,8.153,8.153,0,0,1-2.06-1.56A10.714,10.714,0,0,1,1.24,35.4L6,30.48a11.36,11.36,0,0,0,.74.96,5.019,5.019,0,0,0,.78.74,3.635,3.635,0,0,0,.86.48,2.559,2.559,0,0,0,.94.18,2.069,2.069,0,0,0,1.12-.3,1.976,1.976,0,0,0,.74-.84,2.974,2.974,0,0,0,.26-1.3V19.36H6.28V12h17.8v7.36H19.76V31.48a9.379,9.379,0,0,1-.72,3.8,8.415,8.415,0,0,1-1.96,2.8,8.1,8.1,0,0,1-2.9,1.74A10.78,10.78,0,0,1,10.6,40.4Zm27.92,0a13.048,13.048,0,0,1-6.2-1.44,11,11,0,0,1-4.28-3.94,10.615,10.615,0,0,1-1.56-5.74,10.615,10.615,0,0,1,1.56-5.74,11,11,0,0,1,4.28-3.94,13.048,13.048,0,0,1,6.2-1.44A12.93,12.93,0,0,1,44.7,19.6a10.89,10.89,0,0,1,4.24,3.94,10.72,10.72,0,0,1,1.54,5.74,10.72,10.72,0,0,1-1.54,5.74,10.89,10.89,0,0,1-4.24,3.94A12.93,12.93,0,0,1,38.52,40.4Zm0-6.8a3.477,3.477,0,0,0,1.94-.56A3.774,3.774,0,0,0,41.8,31.5a4.982,4.982,0,0,0,.48-2.22,5.076,5.076,0,0,0-.48-2.26,3.774,3.774,0,0,0-1.34-1.54,3.477,3.477,0,0,0-1.94-.56,3.547,3.547,0,0,0-1.98.56,3.92,3.92,0,0,0-1.36,1.54,4.906,4.906,0,0,0-.5,2.26,4.815,4.815,0,0,0,.5,2.22,3.92,3.92,0,0,0,1.36,1.54A3.547,3.547,0,0,0,38.52,33.6ZM54.48,40V18.6H62l.48,7.12-1.8-1.12a9.7,9.7,0,0,1,1.64-3.3,8.262,8.262,0,0,1,2.7-2.3,7.094,7.094,0,0,1,3.38-.84,8.812,8.812,0,0,1,1.36.1,12,12,0,0,1,1.24.26l-2.24,9A4.3,4.3,0,0,0,67.5,27a6.9,6.9,0,0,0-1.86-.24,3.642,3.642,0,0,0-1.3.22,2.34,2.34,0,0,0-.96.66,3.043,3.043,0,0,0-.58,1.04,4.432,4.432,0,0,0-.2,1.4V40ZM74.2,40V18.6h7.52l.4,4.32-1.72.48a6.4,6.4,0,0,1,1.58-2.7,8.242,8.242,0,0,1,2.74-1.86,8.6,8.6,0,0,1,3.4-.68,7.842,7.842,0,0,1,4.08,1,6.263,6.263,0,0,1,2.54,2.94,11.561,11.561,0,0,1,.86,4.7V40H87.48V27.48A3.49,3.49,0,0,0,87.2,26a2.011,2.011,0,0,0-.84-.92,2.616,2.616,0,0,0-1.32-.32,3.227,3.227,0,0,0-1.1.18,2.3,2.3,0,0,0-.86.54,2.716,2.716,0,0,0-.56.8,2.391,2.391,0,0,0-.2,1V40H74.2Zm34.24.36a8.241,8.241,0,0,1-4.76-1.42,9.714,9.714,0,0,1-3.28-3.92,13.111,13.111,0,0,1-1.2-5.74,13.4,13.4,0,0,1,1.18-5.78,9.509,9.509,0,0,1,3.28-3.92,8.469,8.469,0,0,1,4.86-1.42,8.308,8.308,0,0,1,2.64.4,7,7,0,0,1,2.12,1.12,8.206,8.206,0,0,1,1.6,1.66,11.188,11.188,0,0,1,1.16,2.02l-1.64-.04V18.6h7.96V40H114.2V34.76l1.8.16a8.685,8.685,0,0,1-1.1,2.16,7.536,7.536,0,0,1-1.66,1.72,7.837,7.837,0,0,1-4.8,1.56Zm2.32-6.6a3.621,3.621,0,0,0,1.98-.52,3.211,3.211,0,0,0,1.24-1.52,6.3,6.3,0,0,0,.42-2.44,6.455,6.455,0,0,0-.42-2.46,3.2,3.2,0,0,0-1.24-1.54,3.621,3.621,0,0,0-1.98-.52,3.521,3.521,0,0,0-1.96.52,3.244,3.244,0,0,0-1.22,1.54,6.455,6.455,0,0,0-.42,2.46,6.3,6.3,0,0,0,.42,2.44,3.253,3.253,0,0,0,1.22,1.52A3.521,3.521,0,0,0,110.76,33.76Zm24.72,6.68a8.082,8.082,0,0,1-4.7-1.42,9.629,9.629,0,0,1-3.24-3.92,13.4,13.4,0,0,1-1.18-5.78,13.242,13.242,0,0,1,1.2-5.76,9.775,9.775,0,0,1,3.3-3.96,8.318,8.318,0,0,1,4.82-1.44,8.824,8.824,0,0,1,2.6.38,7.925,7.925,0,0,1,2.24,1.08,7.369,7.369,0,0,1,1.7,1.64,5.271,5.271,0,0,1,.94,2.02l-1.8.56V10.4h8.16V40H142.2l-.64-4.72,1.64.36a4.5,4.5,0,0,1-.88,1.92,6.46,6.46,0,0,1-1.7,1.52,8.664,8.664,0,0,1-2.34,1A10.6,10.6,0,0,1,135.48,40.44Zm2.44-6.6a3.52,3.52,0,0,0,1.98-.54,3.33,3.33,0,0,0,1.24-1.54,6.3,6.3,0,0,0,.42-2.44,6.455,6.455,0,0,0-.42-2.46,3.2,3.2,0,0,0-1.24-1.54,3.622,3.622,0,0,0-1.98-.52,3.521,3.521,0,0,0-1.96.52,3.244,3.244,0,0,0-1.22,1.54,6.455,6.455,0,0,0-.42,2.46,6.3,6.3,0,0,0,.42,2.44,3.377,3.377,0,0,0,1.22,1.54A3.423,3.423,0,0,0,137.92,33.84Zm24.44,6.52a8.241,8.241,0,0,1-4.76-1.42,9.714,9.714,0,0,1-3.28-3.92,13.111,13.111,0,0,1-1.2-5.74,13.4,13.4,0,0,1,1.18-5.78,9.509,9.509,0,0,1,3.28-3.92,8.469,8.469,0,0,1,4.86-1.42,8.307,8.307,0,0,1,2.64.4,7,7,0,0,1,2.12,1.12,8.207,8.207,0,0,1,1.6,1.66,11.188,11.188,0,0,1,1.16,2.02l-1.64-.04V18.6h7.96V40h-8.16V34.76l1.8.16a8.685,8.685,0,0,1-1.1,2.16,7.536,7.536,0,0,1-1.66,1.72,7.837,7.837,0,0,1-4.8,1.56Zm2.32-6.6a3.622,3.622,0,0,0,1.98-.52,3.211,3.211,0,0,0,1.24-1.52,6.3,6.3,0,0,0,.42-2.44,6.455,6.455,0,0,0-.42-2.46,3.2,3.2,0,0,0-1.24-1.54,3.622,3.622,0,0,0-1.98-.52,3.521,3.521,0,0,0-1.96.52,3.244,3.244,0,0,0-1.22,1.54,6.455,6.455,0,0,0-.42,2.46,6.3,6.3,0,0,0,.42,2.44,3.253,3.253,0,0,0,1.22,1.52A3.521,3.521,0,0,0,164.68,33.76Zm31.2,15.04V18.6h7.52l.44,4.72-1.64-.36a4.782,4.782,0,0,1,1.36-2.48,7.539,7.539,0,0,1,2.74-1.7,10.268,10.268,0,0,1,3.62-.62,8.082,8.082,0,0,1,4.7,1.42,9.629,9.629,0,0,1,3.24,3.92,13.4,13.4,0,0,1,1.18,5.78,13.111,13.111,0,0,1-1.2,5.74,9.653,9.653,0,0,1-3.3,3.92,8.4,8.4,0,0,1-4.82,1.42,8.917,8.917,0,0,1-3.38-.64,7.468,7.468,0,0,1-2.66-1.78,5.722,5.722,0,0,1-1.44-2.62l1.8-.56V48.8Zm11.6-15.04a3.521,3.521,0,0,0,1.96-.52,3.253,3.253,0,0,0,1.22-1.52,6.3,6.3,0,0,0,.42-2.44,6.455,6.455,0,0,0-.42-2.46,3.244,3.244,0,0,0-1.22-1.54,3.521,3.521,0,0,0-1.96-.52,3.621,3.621,0,0,0-1.98.52,3.2,3.2,0,0,0-1.24,1.54,6.455,6.455,0,0,0-.42,2.46,6.3,6.3,0,0,0,.42,2.44,3.211,3.211,0,0,0,1.24,1.52A3.621,3.621,0,0,0,207.48,33.76ZM233.4,40.4a13.343,13.343,0,0,1-6.4-1.44,10.212,10.212,0,0,1-4.12-3.94,11.292,11.292,0,0,1-1.44-5.74,12.056,12.056,0,0,1,.8-4.44,10.519,10.519,0,0,1,2.26-3.54,10.18,10.18,0,0,1,3.44-2.32,11.234,11.234,0,0,1,4.34-.82,10.938,10.938,0,0,1,4.3.82,9.65,9.65,0,0,1,3.34,2.32,10.238,10.238,0,0,1,2.14,3.54,11.76,11.76,0,0,1,.66,4.44l-.04,1.68H225.92l-.92-3.8h11.24l-.76.8v-.72a2.389,2.389,0,0,0-.38-1.34,2.512,2.512,0,0,0-1.06-.9,4.2,4.2,0,0,0-3.56.16,3.1,3.1,0,0,0-1.22,1.36,4.887,4.887,0,0,0-.42,2.12,4.973,4.973,0,0,0,.62,2.52,4.182,4.182,0,0,0,1.84,1.68,6.809,6.809,0,0,0,3.02.6,6.277,6.277,0,0,0,2.06-.3,7.444,7.444,0,0,0,1.82-.98l3.72,5.24a14.221,14.221,0,0,1-2.9,1.8,13.213,13.213,0,0,1-2.8.92A14.146,14.146,0,0,1,233.4,40.4Zm13.08-.4V10.4h8.12V40Zm20.96.36a8.241,8.241,0,0,1-4.76-1.42,9.714,9.714,0,0,1-3.28-3.92,13.111,13.111,0,0,1-1.2-5.74,13.4,13.4,0,0,1,1.18-5.78,9.509,9.509,0,0,1,3.28-3.92,8.469,8.469,0,0,1,4.86-1.42,8.308,8.308,0,0,1,2.64.4,7,7,0,0,1,2.12,1.12,8.206,8.206,0,0,1,1.6,1.66,11.188,11.188,0,0,1,1.16,2.02l-1.64-.04V18.6h7.96V40H273.2V34.76l1.8.16a8.684,8.684,0,0,1-1.1,2.16,7.535,7.535,0,0,1-1.66,1.72,7.837,7.837,0,0,1-4.8,1.56Zm2.32-6.6a3.621,3.621,0,0,0,1.98-.52,3.211,3.211,0,0,0,1.24-1.52,6.3,6.3,0,0,0,.42-2.44,6.455,6.455,0,0,0-.42-2.46,3.2,3.2,0,0,0-1.24-1.54,3.621,3.621,0,0,0-1.98-.52,3.521,3.521,0,0,0-1.96.52,3.244,3.244,0,0,0-1.22,1.54,6.455,6.455,0,0,0-.42,2.46,6.3,6.3,0,0,0,.42,2.44,3.254,3.254,0,0,0,1.22,1.52A3.521,3.521,0,0,0,269.76,33.76ZM300.96,40V10.4h7.92V22.92l-1.72.48a6.4,6.4,0,0,1,1.58-2.7,8.242,8.242,0,0,1,2.74-1.86,8.6,8.6,0,0,1,3.4-.68,7.842,7.842,0,0,1,4.08,1,6.263,6.263,0,0,1,2.54,2.94,11.561,11.561,0,0,1,.86,4.7V40h-8.12V27.48a3.489,3.489,0,0,0-.28-1.48,2.011,2.011,0,0,0-.84-.92,2.616,2.616,0,0,0-1.32-.32,3.227,3.227,0,0,0-1.1.18,2.3,2.3,0,0,0-.86.54,2.716,2.716,0,0,0-.56.8,2.391,2.391,0,0,0-.2,1V40h-8.12Zm26.72,0V18.6h8.12V40Zm4.08-25.28a5.185,5.185,0,0,1-3.38-1,3.464,3.464,0,0,1-1.22-2.84,3.5,3.5,0,0,1,1.24-2.76,4.939,4.939,0,0,1,3.36-1.08,5.185,5.185,0,0,1,3.38,1,3.464,3.464,0,0,1,1.22,2.84,3.5,3.5,0,0,1-1.24,2.76A4.939,4.939,0,0,1,331.76,14.72ZM348.88,40.4a15.879,15.879,0,0,1-6.06-1.06,10.85,10.85,0,0,1-4.02-2.66l4.72-4.04a8.324,8.324,0,0,0,2.94,1.66,9.326,9.326,0,0,0,2.78.54,3.6,3.6,0,0,0,.7-.06,1.135,1.135,0,0,0,.48-.2,1.174,1.174,0,0,0,.28-.3.742.742,0,0,0,.1-.4.925.925,0,0,0-.64-.88,10.433,10.433,0,0,0-1.18-.4q-.82-.24-2.14-.56a16.734,16.734,0,0,1-2.86-1,9.293,9.293,0,0,1-2.22-1.4,6.57,6.57,0,0,1-1.5-2,5.728,5.728,0,0,1-.54-2.52,5.609,5.609,0,0,1,.76-2.92,6.882,6.882,0,0,1,2.08-2.18,10.4,10.4,0,0,1,2.96-1.38,11.9,11.9,0,0,1,3.36-.48,16.759,16.759,0,0,1,3.66.38,15.577,15.577,0,0,1,3.2,1.08,14.412,14.412,0,0,1,2.74,1.66l-4.12,4.6a11.652,11.652,0,0,0-1.58-1.08,10.875,10.875,0,0,0-1.88-.86,5.578,5.578,0,0,0-1.82-.34,3.853,3.853,0,0,0-.74.06,1.311,1.311,0,0,0-.5.2.97.97,0,0,0-.3.32.851.851,0,0,0-.1.42,1.013,1.013,0,0,0,.2.6,1.552,1.552,0,0,0,.64.48q.36.16,1.22.44t2.54.76a19.375,19.375,0,0,1,3.18,1.2,7.378,7.378,0,0,1,2.22,1.6,4.977,4.977,0,0,1,.88,1.44,4.588,4.588,0,0,1,.32,1.72,6.377,6.377,0,0,1-1.26,3.9,8.5,8.5,0,0,1-3.46,2.68A12.272,12.272,0,0,1,348.88,40.4Zm14.08-.4V13.2h8.12V40Zm-3.32-14.6V18.6H374.6v6.8Zm28.8,15a13.048,13.048,0,0,1-6.2-1.44,11,11,0,0,1-4.28-3.94,10.615,10.615,0,0,1-1.56-5.74,10.615,10.615,0,0,1,1.56-5.74,11,11,0,0,1,4.28-3.94,14.024,14.024,0,0,1,12.38,0,10.89,10.89,0,0,1,4.24,3.94,10.72,10.72,0,0,1,1.54,5.74,10.72,10.72,0,0,1-1.54,5.74,10.89,10.89,0,0,1-4.24,3.94A12.93,12.93,0,0,1,388.44,40.4Zm0-6.8a3.477,3.477,0,0,0,1.94-.56,3.774,3.774,0,0,0,1.34-1.54,4.982,4.982,0,0,0,.48-2.22,5.076,5.076,0,0,0-.48-2.26,3.774,3.774,0,0,0-1.34-1.54,3.477,3.477,0,0,0-1.94-.56,3.547,3.547,0,0,0-1.98.56,3.92,3.92,0,0,0-1.36,1.54,4.906,4.906,0,0,0-.5,2.26,4.815,4.815,0,0,0,.5,2.22,3.92,3.92,0,0,0,1.36,1.54A3.547,3.547,0,0,0,388.44,33.6ZM385,16.96l-2.32-3.56,8.24-6.16,3.2,4.84ZM404.4,40V18.6h7.52l.48,7.12-1.8-1.12a9.7,9.7,0,0,1,1.64-3.3,8.262,8.262,0,0,1,2.7-2.3,7.094,7.094,0,0,1,3.38-.84,8.812,8.812,0,0,1,1.36.1,12,12,0,0,1,1.24.26l-2.24,9a4.3,4.3,0,0,0-1.26-.52,6.9,6.9,0,0,0-1.86-.24,3.642,3.642,0,0,0-1.3.22,2.339,2.339,0,0,0-.96.66,3.043,3.043,0,0,0-.58,1.04,4.432,4.432,0,0,0-.2,1.4V40Zm19.84,0V18.6h8.12V40Zm4.08-25.28a5.185,5.185,0,0,1-3.38-1,3.464,3.464,0,0,1-1.22-2.84,3.5,3.5,0,0,1,1.24-2.76,4.939,4.939,0,0,1,3.36-1.08,5.185,5.185,0,0,1,3.38,1,3.464,3.464,0,0,1,1.22,2.84,3.5,3.5,0,0,1-1.24,2.76A4.939,4.939,0,0,1,428.32,14.72Zm17.44,25.64A8.241,8.241,0,0,1,441,38.94a9.714,9.714,0,0,1-3.28-3.92,13.111,13.111,0,0,1-1.2-5.74,13.4,13.4,0,0,1,1.18-5.78,9.509,9.509,0,0,1,3.28-3.92,8.469,8.469,0,0,1,4.86-1.42,8.308,8.308,0,0,1,2.64.4,7,7,0,0,1,2.12,1.12,8.206,8.206,0,0,1,1.6,1.66,11.188,11.188,0,0,1,1.16,2.02l-1.64-.04V18.6h7.96V40h-8.16V34.76l1.8.16a8.684,8.684,0,0,1-1.1,2.16,7.535,7.535,0,0,1-1.66,1.72,7.837,7.837,0,0,1-4.8,1.56Zm2.32-6.6a3.621,3.621,0,0,0,1.98-.52,3.211,3.211,0,0,0,1.24-1.52,6.3,6.3,0,0,0,.42-2.44,6.455,6.455,0,0,0-.42-2.46,3.2,3.2,0,0,0-1.24-1.54,3.621,3.621,0,0,0-1.98-.52,3.521,3.521,0,0,0-1.96.52,3.244,3.244,0,0,0-1.22,1.54,6.455,6.455,0,0,0-.42,2.46,6.3,6.3,0,0,0,.42,2.44,3.254,3.254,0,0,0,1.22,1.52A3.521,3.521,0,0,0,448.08,33.76Zm38.72,6.68a8.082,8.082,0,0,1-4.7-1.42,9.629,9.629,0,0,1-3.24-3.92,13.4,13.4,0,0,1-1.18-5.78,13.242,13.242,0,0,1,1.2-5.76,9.775,9.775,0,0,1,3.3-3.96A8.317,8.317,0,0,1,487,18.16a8.824,8.824,0,0,1,2.6.38,7.926,7.926,0,0,1,2.24,1.08,7.369,7.369,0,0,1,1.7,1.64,5.271,5.271,0,0,1,.94,2.02l-1.8.56V10.4h8.16V40h-7.32l-.64-4.72,1.64.36a4.5,4.5,0,0,1-.88,1.92,6.46,6.46,0,0,1-1.7,1.52,8.663,8.663,0,0,1-2.34,1A10.6,10.6,0,0,1,486.8,40.44Zm2.44-6.6a3.519,3.519,0,0,0,1.98-.54,3.33,3.33,0,0,0,1.24-1.54,6.3,6.3,0,0,0,.42-2.44,6.455,6.455,0,0,0-.42-2.46,3.2,3.2,0,0,0-1.24-1.54,3.621,3.621,0,0,0-1.98-.52,3.521,3.521,0,0,0-1.96.52,3.244,3.244,0,0,0-1.22,1.54,6.455,6.455,0,0,0-.42,2.46,6.3,6.3,0,0,0,.42,2.44,3.377,3.377,0,0,0,1.22,1.54A3.423,3.423,0,0,0,489.24,33.84Zm24.44,6.52a8.241,8.241,0,0,1-4.76-1.42,9.714,9.714,0,0,1-3.28-3.92,13.111,13.111,0,0,1-1.2-5.74,13.4,13.4,0,0,1,1.18-5.78,9.509,9.509,0,0,1,3.28-3.92,8.469,8.469,0,0,1,4.86-1.42,8.307,8.307,0,0,1,2.64.4,7,7,0,0,1,2.12,1.12,8.206,8.206,0,0,1,1.6,1.66,11.189,11.189,0,0,1,1.16,2.02l-1.64-.04V18.6h7.96V40h-8.16V34.76l1.8.16a8.686,8.686,0,0,1-1.1,2.16,7.536,7.536,0,0,1-1.66,1.72,7.837,7.837,0,0,1-4.8,1.56Zm2.32-6.6a3.621,3.621,0,0,0,1.98-.52,3.21,3.21,0,0,0,1.24-1.52,6.3,6.3,0,0,0,.42-2.44,6.455,6.455,0,0,0-.42-2.46,3.2,3.2,0,0,0-1.24-1.54,3.622,3.622,0,0,0-1.98-.52,3.521,3.521,0,0,0-1.96.52,3.244,3.244,0,0,0-1.22,1.54,6.455,6.455,0,0,0-.42,2.46,6.3,6.3,0,0,0,.42,2.44,3.253,3.253,0,0,0,1.22,1.52A3.521,3.521,0,0,0,516,33.76ZM2.8,105.8V75.6h7.52l.44,4.72-1.64-.36a4.782,4.782,0,0,1,1.36-2.48,7.539,7.539,0,0,1,2.74-1.7,10.268,10.268,0,0,1,3.62-.62,8.082,8.082,0,0,1,4.7,1.42,9.629,9.629,0,0,1,3.24,3.92,13.4,13.4,0,0,1,1.18,5.78,13.111,13.111,0,0,1-1.2,5.74,9.653,9.653,0,0,1-3.3,3.92,8.4,8.4,0,0,1-4.82,1.42,8.917,8.917,0,0,1-3.38-.64,7.468,7.468,0,0,1-2.66-1.78,5.722,5.722,0,0,1-1.44-2.62l1.8-.56V105.8ZM14.4,90.76a3.521,3.521,0,0,0,1.96-.52,3.253,3.253,0,0,0,1.22-1.52A6.3,6.3,0,0,0,18,86.28a6.455,6.455,0,0,0-.42-2.46,3.244,3.244,0,0,0-1.22-1.54,3.521,3.521,0,0,0-1.96-.52,3.621,3.621,0,0,0-1.98.52,3.2,3.2,0,0,0-1.24,1.54,6.455,6.455,0,0,0-.42,2.46,6.3,6.3,0,0,0,.42,2.44,3.211,3.211,0,0,0,1.24,1.52A3.621,3.621,0,0,0,14.4,90.76ZM40.32,97.4a13.343,13.343,0,0,1-6.4-1.44,10.212,10.212,0,0,1-4.12-3.94,11.292,11.292,0,0,1-1.44-5.74,12.056,12.056,0,0,1,.8-4.44,10.519,10.519,0,0,1,2.26-3.54,10.18,10.18,0,0,1,3.44-2.32,11.234,11.234,0,0,1,4.34-.82,10.938,10.938,0,0,1,4.3.82,9.65,9.65,0,0,1,3.34,2.32,10.238,10.238,0,0,1,2.14,3.54,11.76,11.76,0,0,1,.66,4.44l-.04,1.68H32.84l-.92-3.8H43.16l-.76.8v-.72a2.39,2.39,0,0,0-.38-1.34,2.512,2.512,0,0,0-1.06-.9,4.2,4.2,0,0,0-3.56.16,3.1,3.1,0,0,0-1.22,1.36,4.887,4.887,0,0,0-.42,2.12,4.973,4.973,0,0,0,.62,2.52,4.182,4.182,0,0,0,1.84,1.68,6.809,6.809,0,0,0,3.02.6,6.277,6.277,0,0,0,2.06-.3,7.445,7.445,0,0,0,1.82-.98l3.72,5.24a14.221,14.221,0,0,1-2.9,1.8,13.213,13.213,0,0,1-2.8.92A14.146,14.146,0,0,1,40.32,97.4Zm20.4,0a15.879,15.879,0,0,1-6.06-1.06,10.85,10.85,0,0,1-4.02-2.66l4.72-4.04A8.324,8.324,0,0,0,58.3,91.3a9.326,9.326,0,0,0,2.78.54,3.6,3.6,0,0,0,.7-.06,1.135,1.135,0,0,0,.48-.2,1.174,1.174,0,0,0,.28-.3.742.742,0,0,0,.1-.4A.925.925,0,0,0,62,90a10.433,10.433,0,0,0-1.18-.4q-.82-.24-2.14-.56a16.734,16.734,0,0,1-2.86-1,9.293,9.293,0,0,1-2.22-1.4,6.569,6.569,0,0,1-1.5-2,5.729,5.729,0,0,1-.54-2.52,5.609,5.609,0,0,1,.76-2.92,6.882,6.882,0,0,1,2.08-2.18,10.4,10.4,0,0,1,2.96-1.38,11.9,11.9,0,0,1,3.36-.48,16.759,16.759,0,0,1,3.66.38,15.577,15.577,0,0,1,3.2,1.08,14.412,14.412,0,0,1,2.74,1.66l-4.12,4.6a11.651,11.651,0,0,0-1.58-1.08,10.873,10.873,0,0,0-1.88-.86,5.578,5.578,0,0,0-1.82-.34,3.852,3.852,0,0,0-.74.06,1.311,1.311,0,0,0-.5.2.97.97,0,0,0-.3.32.851.851,0,0,0-.1.42,1.013,1.013,0,0,0,.2.6,1.552,1.552,0,0,0,.64.48q.36.16,1.22.44t2.54.76a19.375,19.375,0,0,1,3.18,1.2,7.378,7.378,0,0,1,2.22,1.6,4.977,4.977,0,0,1,.88,1.44,4.588,4.588,0,0,1,.32,1.72,6.377,6.377,0,0,1-1.26,3.9,8.5,8.5,0,0,1-3.46,2.68A12.272,12.272,0,0,1,60.72,97.4ZM81,97.4a15.879,15.879,0,0,1-6.06-1.06,10.85,10.85,0,0,1-4.02-2.66l4.72-4.04a8.324,8.324,0,0,0,2.94,1.66,9.326,9.326,0,0,0,2.78.54,3.6,3.6,0,0,0,.7-.06,1.135,1.135,0,0,0,.48-.2,1.174,1.174,0,0,0,.28-.3.742.742,0,0,0,.1-.4.925.925,0,0,0-.64-.88,10.432,10.432,0,0,0-1.18-.4q-.82-.24-2.14-.56a16.734,16.734,0,0,1-2.86-1,9.293,9.293,0,0,1-2.22-1.4,6.569,6.569,0,0,1-1.5-2,5.729,5.729,0,0,1-.54-2.52,5.609,5.609,0,0,1,.76-2.92,6.882,6.882,0,0,1,2.08-2.18,10.4,10.4,0,0,1,2.96-1.38A11.9,11.9,0,0,1,81,75.16a16.759,16.759,0,0,1,3.66.38,15.577,15.577,0,0,1,3.2,1.08,14.412,14.412,0,0,1,2.74,1.66l-4.12,4.6A11.651,11.651,0,0,0,84.9,81.8a10.873,10.873,0,0,0-1.88-.86,5.578,5.578,0,0,0-1.82-.34,3.852,3.852,0,0,0-.74.06,1.311,1.311,0,0,0-.5.2.97.97,0,0,0-.3.32.851.851,0,0,0-.1.42,1.013,1.013,0,0,0,.2.6,1.553,1.553,0,0,0,.64.48q.36.16,1.22.44t2.54.76a19.375,19.375,0,0,1,3.18,1.2,7.378,7.378,0,0,1,2.22,1.6,4.977,4.977,0,0,1,.88,1.44,4.588,4.588,0,0,1,.32,1.72,6.377,6.377,0,0,1-1.26,3.9,8.5,8.5,0,0,1-3.46,2.68A12.272,12.272,0,0,1,81,97.4Zm23.4,0a13.048,13.048,0,0,1-6.2-1.44,11,11,0,0,1-4.28-3.94,11.34,11.34,0,0,1,0-11.48A11,11,0,0,1,98.2,76.6a14.024,14.024,0,0,1,12.38,0,10.89,10.89,0,0,1,4.24,3.94,11.467,11.467,0,0,1,0,11.48,10.89,10.89,0,0,1-4.24,3.94A12.93,12.93,0,0,1,104.4,97.4Zm0-6.8a3.477,3.477,0,0,0,1.94-.56,3.774,3.774,0,0,0,1.34-1.54,4.982,4.982,0,0,0,.48-2.22,5.076,5.076,0,0,0-.48-2.26,3.774,3.774,0,0,0-1.34-1.54,3.477,3.477,0,0,0-1.94-.56,3.547,3.547,0,0,0-1.98.56,3.92,3.92,0,0,0-1.36,1.54,4.906,4.906,0,0,0-.5,2.26,4.815,4.815,0,0,0,.5,2.22,3.92,3.92,0,0,0,1.36,1.54A3.547,3.547,0,0,0,104.4,90.6ZM128,97.36a8.241,8.241,0,0,1-4.76-1.42,9.714,9.714,0,0,1-3.28-3.92,13.111,13.111,0,0,1-1.2-5.74,13.4,13.4,0,0,1,1.18-5.78,9.509,9.509,0,0,1,3.28-3.92,8.469,8.469,0,0,1,4.86-1.42,8.308,8.308,0,0,1,2.64.4,7,7,0,0,1,2.12,1.12,8.207,8.207,0,0,1,1.6,1.66,11.189,11.189,0,0,1,1.16,2.02l-1.64-.04V75.6h7.96V97h-8.16V91.76l1.8.16a8.684,8.684,0,0,1-1.1,2.16,7.536,7.536,0,0,1-1.66,1.72,7.837,7.837,0,0,1-4.8,1.56Zm2.32-6.6a3.622,3.622,0,0,0,1.98-.52,3.211,3.211,0,0,0,1.24-1.52,6.3,6.3,0,0,0,.42-2.44,6.455,6.455,0,0,0-.42-2.46,3.2,3.2,0,0,0-1.24-1.54,3.622,3.622,0,0,0-1.98-.52,3.521,3.521,0,0,0-1.96.52,3.244,3.244,0,0,0-1.22,1.54,6.455,6.455,0,0,0-.42,2.46,6.3,6.3,0,0,0,.42,2.44,3.253,3.253,0,0,0,1.22,1.52A3.521,3.521,0,0,0,130.32,90.76Zm40.84,6.64a11.513,11.513,0,0,1-5.78-1.44,10.606,10.606,0,0,1-4-3.94,12.013,12.013,0,0,1,0-11.48,10.606,10.606,0,0,1,4-3.94,11.513,11.513,0,0,1,5.78-1.44,15.573,15.573,0,0,1,5.32.88,9.626,9.626,0,0,1,3.96,2.56l-4.4,5.2a5.661,5.661,0,0,0-1.04-.88,4.88,4.88,0,0,0-1.36-.62,6.35,6.35,0,0,0-1.76-.22,4.123,4.123,0,0,0-2.1.52,3.473,3.473,0,0,0-1.38,1.46,4.73,4.73,0,0,0-.48,2.18,4.807,4.807,0,0,0,.46,2.14,3.6,3.6,0,0,0,1.36,1.5,3.969,3.969,0,0,0,2.14.56,6.949,6.949,0,0,0,1.76-.2,4.812,4.812,0,0,0,1.36-.58,4.518,4.518,0,0,0,1.04-.9L180.4,94a9.5,9.5,0,0,1-3.92,2.52A15.573,15.573,0,0,1,171.16,97.4Zm22.92,0a13.048,13.048,0,0,1-6.2-1.44,11,11,0,0,1-4.28-3.94,11.34,11.34,0,0,1,0-11.48,11,11,0,0,1,4.28-3.94,14.024,14.024,0,0,1,12.38,0,10.89,10.89,0,0,1,4.24,3.94,11.467,11.467,0,0,1,0,11.48,10.89,10.89,0,0,1-4.24,3.94A12.93,12.93,0,0,1,194.08,97.4Zm0-6.8a3.477,3.477,0,0,0,1.94-.56,3.774,3.774,0,0,0,1.34-1.54,4.982,4.982,0,0,0,.48-2.22,5.076,5.076,0,0,0-.48-2.26,3.774,3.774,0,0,0-1.34-1.54,3.477,3.477,0,0,0-1.94-.56,3.547,3.547,0,0,0-1.98.56,3.92,3.92,0,0,0-1.36,1.54,4.906,4.906,0,0,0-.5,2.26,4.815,4.815,0,0,0,.5,2.22,3.92,3.92,0,0,0,1.36,1.54A3.547,3.547,0,0,0,194.08,90.6ZM210.04,97V75.6h7.52l.32,3.36-.92-.32a6.357,6.357,0,0,1,1.38-1.7A7.139,7.139,0,0,1,220,75.88a7.4,7.4,0,0,1,1.8-.56,10.279,10.279,0,0,1,1.76-.16,8.963,8.963,0,0,1,2.64.38,5.562,5.562,0,0,1,2.24,1.34,7.388,7.388,0,0,1,1.68,2.76l-1.24-.04.32-.56a6.7,6.7,0,0,1,1.44-1.76,8.4,8.4,0,0,1,1.84-1.2,9.014,9.014,0,0,1,2.04-.7,9.662,9.662,0,0,1,2-.22,9.035,9.035,0,0,1,4.44,1,6.3,6.3,0,0,1,2.7,2.94,11.111,11.111,0,0,1,.9,4.7V97h-8.12V84.48a3.49,3.49,0,0,0-.28-1.48,2.043,2.043,0,0,0-.82-.92,2.506,2.506,0,0,0-1.3-.32,3.227,3.227,0,0,0-1.1.18,2.125,2.125,0,0,0-.84.54,2.917,2.917,0,0,0-.54.8,2.391,2.391,0,0,0-.2,1V97h-8.12V84.48a3.49,3.49,0,0,0-.28-1.48,2.043,2.043,0,0,0-.82-.92,2.506,2.506,0,0,0-1.3-.32,3.227,3.227,0,0,0-1.1.18,2.125,2.125,0,0,0-.84.54,2.917,2.917,0,0,0-.54.8,2.391,2.391,0,0,0-.2,1V97Zm61.24.44a8.082,8.082,0,0,1-4.7-1.42,9.629,9.629,0,0,1-3.24-3.92,13.4,13.4,0,0,1-1.18-5.78,13.242,13.242,0,0,1,1.2-5.76,9.775,9.775,0,0,1,3.3-3.96,8.317,8.317,0,0,1,4.82-1.44,8.824,8.824,0,0,1,2.6.38,7.926,7.926,0,0,1,2.24,1.08,7.369,7.369,0,0,1,1.7,1.64,5.271,5.271,0,0,1,.94,2.02l-1.8.56V67.4h8.16V97H278l-.64-4.72,1.64.36a4.5,4.5,0,0,1-.88,1.92,6.46,6.46,0,0,1-1.7,1.52,8.663,8.663,0,0,1-2.34,1A10.6,10.6,0,0,1,271.28,97.44Zm2.44-6.6a3.519,3.519,0,0,0,1.98-.54,3.33,3.33,0,0,0,1.24-1.54,6.3,6.3,0,0,0,.42-2.44,6.455,6.455,0,0,0-.42-2.46,3.2,3.2,0,0,0-1.24-1.54,3.621,3.621,0,0,0-1.98-.52,3.521,3.521,0,0,0-1.96.52,3.244,3.244,0,0,0-1.22,1.54,6.455,6.455,0,0,0-.42,2.46,6.3,6.3,0,0,0,.42,2.44,3.377,3.377,0,0,0,1.22,1.54A3.423,3.423,0,0,0,273.72,90.84Zm27.16,6.56a13.343,13.343,0,0,1-6.4-1.44,10.212,10.212,0,0,1-4.12-3.94,11.292,11.292,0,0,1-1.44-5.74,12.056,12.056,0,0,1,.8-4.44,10.518,10.518,0,0,1,2.26-3.54,10.18,10.18,0,0,1,3.44-2.32,11.234,11.234,0,0,1,4.34-.82,10.938,10.938,0,0,1,4.3.82,9.65,9.65,0,0,1,3.34,2.32,10.239,10.239,0,0,1,2.14,3.54,11.761,11.761,0,0,1,.66,4.44l-.04,1.68H293.4l-.92-3.8h11.24l-.76.8v-.72a2.39,2.39,0,0,0-.38-1.34,2.512,2.512,0,0,0-1.06-.9,4.2,4.2,0,0,0-3.56.16,3.1,3.1,0,0,0-1.22,1.36,4.887,4.887,0,0,0-.42,2.12,4.973,4.973,0,0,0,.62,2.52,4.182,4.182,0,0,0,1.84,1.68,6.809,6.809,0,0,0,3.02.6,6.277,6.277,0,0,0,2.06-.3,7.444,7.444,0,0,0,1.82-.98l3.72,5.24a14.22,14.22,0,0,1-2.9,1.8,13.214,13.214,0,0,1-2.8.92A14.146,14.146,0,0,1,300.88,97.4ZM314.6,97V75.52a8.862,8.862,0,0,1,.98-4.16,7.816,7.816,0,0,1,2.76-3.02,7.581,7.581,0,0,1,4.18-1.14,10.091,10.091,0,0,1,3.04.44,11.807,11.807,0,0,1,2.64,1.2l-2.12,5.8q-.52-.12-.92-.18a4.7,4.7,0,0,0-.68-.06,1.893,1.893,0,0,0-1.02.24,1.4,1.4,0,0,0-.56.7,3.146,3.146,0,0,0-.18,1.14V97H314.6Zm-2.92-14.24v-6.4h14.96v6.4ZM329.8,97V75.6h8.12V97Zm4.08-25.28a5.185,5.185,0,0,1-3.38-1,3.8,3.8,0,0,1,.02-5.6,4.939,4.939,0,0,1,3.36-1.08,5.185,5.185,0,0,1,3.38,1,3.8,3.8,0,0,1-.02,5.6A4.939,4.939,0,0,1,333.88,71.72ZM353.32,97.4a11.513,11.513,0,0,1-5.78-1.44,10.606,10.606,0,0,1-4-3.94,12.013,12.013,0,0,1,0-11.48,10.606,10.606,0,0,1,4-3.94,11.513,11.513,0,0,1,5.78-1.44,15.573,15.573,0,0,1,5.32.88,9.626,9.626,0,0,1,3.96,2.56l-4.4,5.2a5.661,5.661,0,0,0-1.04-.88,4.88,4.88,0,0,0-1.36-.62,6.35,6.35,0,0,0-1.76-.22,4.123,4.123,0,0,0-2.1.52,3.473,3.473,0,0,0-1.38,1.46,4.731,4.731,0,0,0-.48,2.18,4.807,4.807,0,0,0,.46,2.14,3.6,3.6,0,0,0,1.36,1.5,3.969,3.969,0,0,0,2.14.56,6.95,6.95,0,0,0,1.76-.2,4.812,4.812,0,0,0,1.36-.58,4.518,4.518,0,0,0,1.04-.9L362.56,94a9.5,9.5,0,0,1-3.92,2.52A15.573,15.573,0,0,1,353.32,97.4Zm12.6-.4V75.6h8.12V97ZM370,71.72a5.185,5.185,0,0,1-3.38-1,3.8,3.8,0,0,1,.02-5.6A4.939,4.939,0,0,1,370,64.04a5.185,5.185,0,0,1,3.38,1,3.8,3.8,0,0,1-.02,5.6A4.939,4.939,0,0,1,370,71.72ZM390.16,97.4a13.343,13.343,0,0,1-6.4-1.44,10.212,10.212,0,0,1-4.12-3.94,11.292,11.292,0,0,1-1.44-5.74,12.056,12.056,0,0,1,.8-4.44,10.518,10.518,0,0,1,2.26-3.54,10.18,10.18,0,0,1,3.44-2.32,11.234,11.234,0,0,1,4.34-.82,10.938,10.938,0,0,1,4.3.82,9.65,9.65,0,0,1,3.34,2.32,10.239,10.239,0,0,1,2.14,3.54,11.761,11.761,0,0,1,.66,4.44l-.04,1.68H382.68l-.92-3.8H393l-.76.8v-.72a2.39,2.39,0,0,0-.38-1.34,2.512,2.512,0,0,0-1.06-.9,4.2,4.2,0,0,0-3.56.16,3.1,3.1,0,0,0-1.22,1.36,4.887,4.887,0,0,0-.42,2.12,4.973,4.973,0,0,0,.62,2.52,4.182,4.182,0,0,0,1.84,1.68,6.809,6.809,0,0,0,3.02.6,6.277,6.277,0,0,0,2.06-.3,7.444,7.444,0,0,0,1.82-.98l3.72,5.24a14.22,14.22,0,0,1-2.9,1.8,13.214,13.214,0,0,1-2.8.92A14.146,14.146,0,0,1,390.16,97.4Zm-6.92-24.24-2.88-2.48L387,65h4.08l6.64,5.68-2.88,2.48-6.4-3.84h1.2Zm20,23.84V75.6h7.52l.4,4.32-1.72.48a6.4,6.4,0,0,1,1.58-2.7,8.242,8.242,0,0,1,2.74-1.86,8.6,8.6,0,0,1,3.4-.68,7.842,7.842,0,0,1,4.08,1,6.263,6.263,0,0,1,2.54,2.94,11.561,11.561,0,0,1,.86,4.7V97h-8.12V84.48a3.49,3.49,0,0,0-.28-1.48,2.011,2.011,0,0,0-.84-.92,2.616,2.616,0,0,0-1.32-.32,3.227,3.227,0,0,0-1.1.18,2.3,2.3,0,0,0-.86.54,2.716,2.716,0,0,0-.56.8,2.391,2.391,0,0,0-.2,1V97h-8.12Zm36.24.4a11.513,11.513,0,0,1-5.78-1.44,10.606,10.606,0,0,1-4-3.94,12.013,12.013,0,0,1,0-11.48,10.606,10.606,0,0,1,4-3.94,11.513,11.513,0,0,1,5.78-1.44,15.573,15.573,0,0,1,5.32.88,9.626,9.626,0,0,1,3.96,2.56l-4.4,5.2a5.661,5.661,0,0,0-1.04-.88,4.88,4.88,0,0,0-1.36-.62,6.35,6.35,0,0,0-1.76-.22,4.123,4.123,0,0,0-2.1.52,3.473,3.473,0,0,0-1.38,1.46,4.731,4.731,0,0,0-.48,2.18,4.807,4.807,0,0,0,.46,2.14,3.6,3.6,0,0,0,1.36,1.5,3.969,3.969,0,0,0,2.14.56,6.95,6.95,0,0,0,1.76-.2,4.812,4.812,0,0,0,1.36-.58,4.518,4.518,0,0,0,1.04-.9L448.72,94a9.5,9.5,0,0,1-3.92,2.52A15.573,15.573,0,0,1,439.48,97.4Zm12.6-.4V75.6h8.12V97Zm4.08-25.28a5.185,5.185,0,0,1-3.38-1,3.8,3.8,0,0,1,.02-5.6,4.939,4.939,0,0,1,3.36-1.08,5.185,5.185,0,0,1,3.38,1,3.8,3.8,0,0,1-.02,5.6A4.939,4.939,0,0,1,456.16,71.72ZM473.6,97.36a8.241,8.241,0,0,1-4.76-1.42,9.714,9.714,0,0,1-3.28-3.92,13.111,13.111,0,0,1-1.2-5.74,13.4,13.4,0,0,1,1.18-5.78,9.509,9.509,0,0,1,3.28-3.92,8.469,8.469,0,0,1,4.86-1.42,8.308,8.308,0,0,1,2.64.4,7,7,0,0,1,2.12,1.12,8.207,8.207,0,0,1,1.6,1.66,11.188,11.188,0,0,1,1.16,2.02l-1.64-.04V75.6h7.96V97h-8.16V91.76l1.8.16a8.684,8.684,0,0,1-1.1,2.16,7.535,7.535,0,0,1-1.66,1.72,7.837,7.837,0,0,1-4.8,1.56Zm2.32-6.6a3.621,3.621,0,0,0,1.98-.52,3.211,3.211,0,0,0,1.24-1.52,6.3,6.3,0,0,0,.42-2.44,6.455,6.455,0,0,0-.42-2.46,3.2,3.2,0,0,0-1.24-1.54,3.621,3.621,0,0,0-1.98-.52,3.521,3.521,0,0,0-1.96.52,3.244,3.244,0,0,0-1.22,1.54,6.455,6.455,0,0,0-.42,2.46,6.3,6.3,0,0,0,.42,2.44,3.254,3.254,0,0,0,1.22,1.52A3.521,3.521,0,0,0,475.92,90.76ZM2.8,154V132.6h7.52l.4,4.32L9,137.4a6.4,6.4,0,0,1,1.58-2.7,8.242,8.242,0,0,1,2.74-1.86,8.6,8.6,0,0,1,3.4-.68,7.842,7.842,0,0,1,4.08,1,6.263,6.263,0,0,1,2.54,2.94,11.561,11.561,0,0,1,.86,4.7V154H16.08V141.48A3.49,3.49,0,0,0,15.8,140a2.011,2.011,0,0,0-.84-.92,2.616,2.616,0,0,0-1.32-.32,3.226,3.226,0,0,0-1.1.18,2.3,2.3,0,0,0-.86.54,2.716,2.716,0,0,0-.56.8,2.391,2.391,0,0,0-.2,1V154H2.8Zm37.04.4a13.048,13.048,0,0,1-6.2-1.44,11,11,0,0,1-4.28-3.94,11.34,11.34,0,0,1,0-11.48,11,11,0,0,1,4.28-3.94,13.048,13.048,0,0,1,6.2-1.44,12.93,12.93,0,0,1,6.18,1.44,10.89,10.89,0,0,1,4.24,3.94,11.467,11.467,0,0,1,0,11.48,10.89,10.89,0,0,1-4.24,3.94A12.93,12.93,0,0,1,39.84,154.4Zm0-6.8a3.477,3.477,0,0,0,1.94-.56,3.774,3.774,0,0,0,1.34-1.54,4.982,4.982,0,0,0,.48-2.22,5.076,5.076,0,0,0-.48-2.26,3.774,3.774,0,0,0-1.34-1.54,3.477,3.477,0,0,0-1.94-.56,3.547,3.547,0,0,0-1.98.56,3.92,3.92,0,0,0-1.36,1.54,4.906,4.906,0,0,0-.5,2.26,4.815,4.815,0,0,0,.5,2.22,3.92,3.92,0,0,0,1.36,1.54A3.547,3.547,0,0,0,39.84,147.6ZM69.8,154V132.6h7.52l.32,3.36-.92-.32a6.358,6.358,0,0,1,1.38-1.7,7.138,7.138,0,0,1,1.66-1.06,7.4,7.4,0,0,1,1.8-.56,10.278,10.278,0,0,1,1.76-.16,8.963,8.963,0,0,1,2.64.38,5.562,5.562,0,0,1,2.24,1.34,7.388,7.388,0,0,1,1.68,2.76l-1.24-.04.32-.56a6.7,6.7,0,0,1,1.44-1.76,8.4,8.4,0,0,1,1.84-1.2,9.015,9.015,0,0,1,2.04-.7,9.662,9.662,0,0,1,2-.22,9.035,9.035,0,0,1,4.44,1,6.3,6.3,0,0,1,2.7,2.94,11.111,11.111,0,0,1,.9,4.7V154H96.2V141.48a3.49,3.49,0,0,0-.28-1.48,2.043,2.043,0,0,0-.82-.92,2.506,2.506,0,0,0-1.3-.32,3.227,3.227,0,0,0-1.1.18,2.124,2.124,0,0,0-.84.54,2.917,2.917,0,0,0-.54.8,2.391,2.391,0,0,0-.2,1V154H83V141.48a3.49,3.49,0,0,0-.28-1.48,2.043,2.043,0,0,0-.82-.92,2.506,2.506,0,0,0-1.3-.32,3.226,3.226,0,0,0-1.1.18,2.124,2.124,0,0,0-.84.54,2.917,2.917,0,0,0-.54.8,2.391,2.391,0,0,0-.2,1V154Zm46.88.44a7.925,7.925,0,0,1-4.12-1A6.375,6.375,0,0,1,110,150.5a11.331,11.331,0,0,1-.88-4.7V132.6h8.12v12.52a3.289,3.289,0,0,0,.3,1.48,2.128,2.128,0,0,0,.86.92,2.7,2.7,0,0,0,1.36.32,3.227,3.227,0,0,0,1.1-.18,2.3,2.3,0,0,0,.86-.54,2.639,2.639,0,0,0,.56-.82,2.431,2.431,0,0,0,.2-.98V132.6h8.12V154h-7.44l-.48-4.32,1.52-.48a6.605,6.605,0,0,1-1.54,2.7,7.905,7.905,0,0,1-2.66,1.86A8.218,8.218,0,0,1,116.68,154.44Zm19.6-.44V132.6h7.52l.4,4.32-1.72.48a6.4,6.4,0,0,1,1.58-2.7,8.242,8.242,0,0,1,2.74-1.86,8.6,8.6,0,0,1,3.4-.68,7.842,7.842,0,0,1,4.08,1,6.263,6.263,0,0,1,2.54,2.94,11.561,11.561,0,0,1,.86,4.7V154h-8.12V141.48a3.49,3.49,0,0,0-.28-1.48,2.011,2.011,0,0,0-.84-.92,2.616,2.616,0,0,0-1.32-.32,3.226,3.226,0,0,0-1.1.18,2.3,2.3,0,0,0-.86.54,2.716,2.716,0,0,0-.56.8,2.391,2.391,0,0,0-.2,1V154h-8.12Zm34.12.44a8.082,8.082,0,0,1-4.7-1.42,9.629,9.629,0,0,1-3.24-3.92,13.4,13.4,0,0,1-1.18-5.78,13.242,13.242,0,0,1,1.2-5.76,9.775,9.775,0,0,1,3.3-3.96,8.317,8.317,0,0,1,4.82-1.44,8.824,8.824,0,0,1,2.6.38,7.925,7.925,0,0,1,2.24,1.08,7.369,7.369,0,0,1,1.7,1.64,5.271,5.271,0,0,1,.94,2.02l-1.8.56V124.4h8.16V154h-7.32l-.64-4.72,1.64.36a4.5,4.5,0,0,1-.88,1.92,6.46,6.46,0,0,1-1.7,1.52,8.664,8.664,0,0,1-2.34,1A10.6,10.6,0,0,1,170.4,154.44Zm2.44-6.6a3.52,3.52,0,0,0,1.98-.54,3.33,3.33,0,0,0,1.24-1.54,6.3,6.3,0,0,0,.42-2.44,6.455,6.455,0,0,0-.42-2.46,3.2,3.2,0,0,0-1.24-1.54,3.622,3.622,0,0,0-1.98-.52,3.521,3.521,0,0,0-1.96.52,3.244,3.244,0,0,0-1.22,1.54,6.455,6.455,0,0,0-.42,2.46,6.3,6.3,0,0,0,.42,2.44,3.377,3.377,0,0,0,1.22,1.54A3.423,3.423,0,0,0,172.84,147.84Zm27.24,6.56a13.048,13.048,0,0,1-6.2-1.44,11,11,0,0,1-4.28-3.94,11.34,11.34,0,0,1,0-11.48,11,11,0,0,1,4.28-3.94,14.024,14.024,0,0,1,12.38,0,10.89,10.89,0,0,1,4.24,3.94,11.467,11.467,0,0,1,0,11.48,10.89,10.89,0,0,1-4.24,3.94A12.93,12.93,0,0,1,200.08,154.4Zm0-6.8a3.477,3.477,0,0,0,1.94-.56,3.774,3.774,0,0,0,1.34-1.54,4.982,4.982,0,0,0,.48-2.22,5.076,5.076,0,0,0-.48-2.26,3.774,3.774,0,0,0-1.34-1.54,3.477,3.477,0,0,0-1.94-.56,3.547,3.547,0,0,0-1.98.56,3.92,3.92,0,0,0-1.36,1.54,4.906,4.906,0,0,0-.5,2.26,4.815,4.815,0,0,0,.5,2.22,3.92,3.92,0,0,0,1.36,1.54A3.547,3.547,0,0,0,200.08,147.6Z" transform="translate(247 311)" fill="#112426"/>
    </g>
  </g>
</svg>
